<svg viewBox="0 0 128 128" xmlns="http://www.w3.org/2000/svg" data-name="Layer 1">
  <path d="M123.222 121.188l-17.691-97.31a1.719 1.719 0 00-.188-.506 21.651 21.651 0 00-42.724-.932H24.19a1.75 1.75 0 00-1.721 1.438l-17.691 97.31A1.75 1.75 0 006.5 123.25h115a1.75 1.75 0 001.722-2.062zM83.9 8.25a18.176 18.176 0 0118.16 18.15c0 15.872-13.969 30.992-18.161 35.169C79.709 57.4 65.75 42.3 65.75 26.4A18.172 18.172 0 0183.9 8.25zM8.6 119.75l17.051-93.81h36.611c0 .154-.012.306-.012.46 0 20.145 19.641 38.142 20.477 38.9a1.749 1.749 0 002.347 0c.7-.634 14.606-13.376 19.1-29.341L119.4 119.75z"/>
  <path d="M103.707 73.941a1.751 1.751 0 00-1.408 2.036l4.09 22.5a1.749 1.749 0 001.719 1.436 1.8 1.8 0 00.316-.028 1.75 1.75 0 001.408-2.035l-4.09-22.5a1.743 1.743 0 00-2.035-1.409zM29.76 43.882a1.77 1.77 0 00.314.028 1.75 1.75 0 001.72-1.437l1.369-7.533H41.5a1.75 1.75 0 100-3.5h-9.8a1.751 1.751 0 00-1.722 1.438l-1.629 8.97a1.75 1.75 0 001.411 2.034zM83.9 39.058A12.654 12.654 0 1071.25 26.4 12.668 12.668 0 0083.9 39.058zm0-21.808a9.154 9.154 0 11-9.15 9.15 9.164 9.164 0 019.15-9.15zM23.994 105.733a1.747 1.747 0 00-2.3.9 60.99 60.99 0 00-1.161 2.859 1.75 1.75 0 003.274 1.24c.366-.966.724-1.849 1.094-2.7a1.749 1.749 0 00-.907-2.299zM31.17 93.079a32.446 32.446 0 00-4.556 4.936 1.75 1.75 0 002.8 2.1 28.879 28.879 0 014.062-4.4 1.75 1.75 0 10-2.3-2.635zM76.564 80.288a19.349 19.349 0 01-5.313 2.36 1.75 1.75 0 00.99 3.358A22.849 22.849 0 0078.5 83.2a1.75 1.75 0 00-1.938-2.914zM62.168 84.31c-2.037.232-4.2.427-6.3.617a1.75 1.75 0 00.156 3.493c.053 0 .107 0 .16-.007 2.114-.191 4.3-.39 6.376-.627a1.749 1.749 0 00-.4-3.476zM46.229 86a33.856 33.856 0 00-6.445 1.829 1.75 1.75 0 001.3 3.252 30.321 30.321 0 015.777-1.638A1.75 1.75 0 1046.229 86zM84.2 69.608a1.75 1.75 0 00-2.02 1.429 18.4 18.4 0 01-.655 2.657 1.75 1.75 0 001.112 2.211 1.728 1.728 0 00.549.089 1.751 1.751 0 001.662-1.2 21.987 21.987 0 00.781-3.165 1.75 1.75 0 00-1.429-2.021z"/>
</svg>
