<svg xmlns="http://www.w3.org/2000/svg"
     viewBox="0 0 480.027 480.027">
    <path fill="#f1ceb1"
          d="M240.013 0c-92.784 0-168 75.216-168 168a175.15 175.15 0 0026.656 92.944l134.56 215.296a8 8 0 0013.6 0l134.56-215.296A175.152 175.152 0 00408.013 168c0-92.784-75.216-168-168-168zm127.784 252.464l-127.784 204.44-127.784-204.44A159.246 159.246 0 0188.013 168c0-83.947 68.053-152 152-152s152 68.053 152 152a159.228 159.228 0 01-24.216 84.464z"/>
    <path fill="#f1ceb1"
          d="M326.149 126.656c-14.365-25.046-46.314-33.706-71.361-19.341a52.264 52.264 0 00-13.695 11.341l-1.08 1.216-1.088-1.256c-18.779-21.927-51.777-24.479-73.704-5.7a52.281 52.281 0 00-11.344 13.7c-11.704 20.492-8.262 46.28 8.408 62.984l72.072 72.072a8 8 0 0011.312 0l72.072-72.072c16.648-16.699 20.089-42.461 8.408-62.944zm-19.736 51.616l-66.4 66.4-66.4-66.4c-11.546-11.586-13.929-29.457-5.824-43.664 9.944-17.385 32.099-23.417 49.484-13.473a36.256 36.256 0 019.524 7.873l7.152 8.352a8.272 8.272 0 0012.16 0l7.144-8.352c13.041-15.206 35.94-16.961 51.146-3.92 3.148 2.7 5.81 5.92 7.87 9.52 8.097 14.214 5.701 32.086-5.856 43.664z"/>
    <path fill="#f1ceb1"
          d="M240.013 40c-70.692 0-128 57.308-128 128s57.308 128 128 128 128-57.308 128-128c-.083-70.658-57.342-127.916-128-128zm0 240c-61.856 0-112-50.144-112-112s50.144-112 112-112 112 50.144 112 112c-.066 61.828-50.171 111.934-112 112z"/>
</svg>