<svg xmlns="http://www.w3.org/2000/svg" viewBox="0 0 1041 1041" shape-rendering="geometricPrecision" text-rendering="geometricPrecision" image-rendering="optimizeQuality" fill-rule="evenodd" clip-rule="evenodd"><defs><style>.fil1{fill:#fff}</style></defs><g id="Layer_x0020_1"><g id="_2743456438432"><path d="M574 931c-30 34-20 27-79-23-32-27-53-40-87-64-15-15-15-15-45-50-13 0-42 4-71 1-70-7-133-29-202-44-49-11-94-2-88-15 26-53 85-87 139-109 4-1 58-6 66-14-34-23-64-51-96-76-91-91-72-187-67-310-6-47-28-68 19-67 56 35 114 65 161 112 40-44 21-80 25-133 5 1 10 1 14 2 66 38 128 75 177 133 50-42 68-99 80-164 10 1 19 1 26 9 22 62 57 130 98 182 24-39 130-189 175-150-1 45-3 87 3 132 9-3 9-3 15-6 40-51 109-123 177-93-35 63-16 109-11 155 3 34 5 64-5 104-21 76-63 105-124 153-3 2-5 6-8 9 63 24 176 46 173 135-17 23-82 18-112 23-81 18-144 45-224 13-30 56-30 56-45 81-16 14-33 34-58 50-11 7 1-7-26 24zm178-169c-13-6-26-11-39-16-9-29-30-53-39-79 67-17 129-38 198-28 46 13 102 37 130 76-2 2-4 3-7 4-80 18-160 37-243 43zM543 900c-63-38-216-120-117-210 17 1 38 12 54 17 49 5 49 5 85 6 70-20 110-49 107 41-18 57-67 130-129 146zM282 767c-75-14-147-34-221-52 85-95 193-73 302-46 12 1 23 3 34 4-30 27-38 45-49 84-24 6-42 10-66 10zm486-163c3-4 5-8 8-12 87-85 93-125 65-245 1-59 71-116 125-134-3 143 41 240-85 337-37 18-75 36-113 54zm-75 18c-1-25 9-48 16-71 9-82-1-112-36-189-6-28 1-47 13-72 24-32 65-83 102-99 1 42 4 82 14 123 28 85 46 150-10 221-31 30-63 62-99 87zm-169 62c-149-28-160-153-106-281 40-77 75-156 118-231 47 90 99 178 144 270 9 29 9 50 6 81-25 113-41 154-162 161zm-163-73c-151-99-127-201-80-360 4-33 4-33 6-63 43 17 135 72 133 128-23 77-62 132-65 217 2 12 16 75 6 78zm-63 4c-13-7-13-7-56-23-47-30-89-48-139-105-61-109-27-184-23-283 54 27 104 67 142 114-17 67-26 132 7 195 43 62 51 76 70 101-1 0-1 1-1 1z"/><path class="fil1" d="M298 615c-13-7-13-7-56-23-47-30-89-48-139-105-61-109-27-184-23-283 54 27 104 67 142 114-17 67-26 132 7 195 43 62 51 76 70 101-1 0-1 1-1 1z"/><path class="fil1" d="M361 611c-151-99-127-201-80-360 4-33 4-33 6-63 43 17 135 72 133 128-23 77-62 132-65 217 2 12 16 75 6 78z"/><path class="fil1" d="M524 684c-149-28-160-153-106-281 40-77 75-156 118-231 47 90 99 178 144 270 9 29 9 50 6 81-25 113-41 154-162 161z"/><path class="fil1" d="M693 622c-1-25 9-48 16-71 9-82-1-112-36-189-6-28 1-47 13-72 24-32 65-83 102-99 1 42 4 82 14 123 28 85 46 150-10 221-31 30-63 63-99 87z"/><path class="fil1" d="M768 604c3-4 5-8 8-12 87-85 93-125 65-245 1-59 71-116 125-134-3 143 41 240-85 337-37 18-75 36-113 54zM282 767c-75-14-147-34-221-52 85-94 193-73 302-46 12 1 23 3 34 4-30 27-38 45-49 84-24 6-42 10-66 10zM543 900c-63-38-216-120-117-210 17 1 38 12 54 17 49 5 49 5 85 6 70-20 110-49 107 41-18 57-67 130-129 146zM752 762c-13-6-26-11-39-16-9-29-30-53-39-79 67-17 129-38 198-28 46 13 102 37 130 76-2 2-4 3-7 4-80 18-160 37-243 43z"/></g></g></svg>