<?xml version="1.0" encoding="UTF-8"?>
<!DOCTYPE svg PUBLIC "-//W3C//DTD SVG 1.1//EN" "http://www.w3.org/Graphics/SVG/1.1/DTD/svg11.dtd">
<!-- Creator: CorelDRAW X8 -->
<svg xmlns="http://www.w3.org/2000/svg" xml:space="preserve" version="1.1" style="shape-rendering:geometricPrecision; text-rendering:geometricPrecision; image-rendering:optimizeQuality; fill-rule:evenodd; clip-rule:evenodd"
viewBox="0 0 16341 16341"
 xmlns:xlink="http://www.w3.org/1999/xlink">
 <defs>
  <style type="text/css">
   <![CDATA[
    .str0 {stroke:#FEFEFE;stroke-width:25;stroke-linecap:round;stroke-linejoin:round}
    .fil2 {fill:none;fill-rule:nonzero}
    .fil0 {fill:#FEFEFE}
    .fil1 {fill:#FEFEFE;fill-rule:nonzero}
   ]]>
  </style>
 </defs>
 <g id="Outline">
  <metadata id="CorelCorpID_0Corel-Layer"/>
  <path class="fil0" d="M8566 6901c-195,233 -130,184 -535,-138 -217,-171 -364,-257 -591,-407 -110,-98 -110,-98 -314,-326 -88,-3 -282,21 -478,21 -469,-51 -907,-132 -1351,-292 -88,0 -595,51 -603,-43 199,-345 546,-600 907,-761 27,-5 384,-55 439,-110 -234,-143 -437,-326 -658,-486 -632,-595 -527,-1242 -517,-2064 -51,-318 -202,-457 116,-457 383,222 780,411 1102,718 261,-305 121,-538 139,-895 32,2 65,4 97,6 446,243 869,477 1212,860 324,-293 433,-684 506,-1121 66,4 121,6 172,57 160,411 411,861 698,1197 151,-266 830,-1289 1141,-1038 1,300 -5,585 46,880 61,-18 61,-18 97,-43 260,-345 706,-847 1169,-657 -260,260 -103,739 -42,1041 11,231 24,462 36,693 -231,476 -439,726 -846,1054 -16,22 -32,44 -48,67 425,143 1187,269 1187,864 -110,159 -547,144 -749,177 -536,142 -957,335 -1498,140 -189,377 -189,377 -286,548 -101,99 -215,240 -378,353 -70,48 6,-49 -170,162zm1163 -1173c-89,-32 -178,-65 -268,-97 -66,-193 -214,-345 -280,-524 449,-121 861,-280 1327,-225 308,75 691,225 885,484 -15,9 -29,18 -44,27 -538,134 -1070,278 -1620,335zm-1376 974c-428,-240 -1476,-763 -830,-1382 115,0 256,68 368,97 329,24 329,24 570,24 467,-147 725,-351 725,252 -109,387 -419,885 -833,1009zm-1778 -840c-507,-76 -994,-195 -1494,-301 554,-652 1280,-530 2018,-375 77,8 154,16 231,25 -199,182 -249,309 -314,569 -158,46 -278,76 -441,82zm3227 -1193c16,-26 32,-53 48,-81 568,-588 597,-860 384,-1659 0,-393 455,-795 810,-927 15,965 329,1604 -495,2282 -249,128 -498,256 -747,385zm-499 134c-14,-164 45,-321 90,-477 46,-552 -26,-754 -280,-1263 -44,-182 -1,-310 75,-481 150,-219 418,-572 662,-689 15,281 45,553 115,826 206,565 340,997 -18,1482 -202,207 -412,432 -644,602zm-1121 451c-1008,-152 -1104,-993 -773,-1863 252,-520 475,-1061 743,-1571 339,593 703,1173 1023,1778 64,198 71,337 61,548 -146,760 -246,1039 -1054,1108zm-1107 -451c-1033,-634 -893,-1324 -616,-2400 24,-219 24,-219 31,-424 289,102 919,456 919,828 -140,523 -390,903 -390,1471 14,83 121,498 56,525zm-427 36c-87,-43 -87,-43 -379,-140 -319,-194 -693,-406 -954,-674 -322,-600 -217,-1228 -214,-1896 370,173 712,426 981,736 -101,456 -150,892 87,1304 301,410 353,499 485,667 -2,1 -3,1 -6,3z"/>
  <path class="fil1" d="M2559 7603c0,211 -120,361 -361,448 87,27 159,57 215,90 168,98 252,244 252,439 0,190 -74,342 -221,455 -147,113 -344,170 -591,170 -89,0 -202,-5 -339,-16 -137,-10 -238,-15 -302,-15 -56,0 -109,3 -159,9l-146 19c-4,0 -11,1 -21,3 -11,0 -18,0 -22,0 -89,-2 -134,-40 -134,-112 0,-66 32,-100 96,-100 17,0 45,3 84,10 27,4 49,6 66,6 105,0 158,-77 158,-230l0 -1251c0,-155 -53,-233 -158,-233 -19,0 -41,2 -66,6 -37,6 -65,10 -84,10 -64,0 -96,-34 -96,-100 0,-73 48,-109 143,-109l41 0 152 22c43,6 103,9 177,9 79,0 191,-6 336,-18 98,-9 202,-13 314,-13 210,0 373,44 490,132 117,88 176,211 176,369zm-1191 134c0,110 9,177 29,203 20,26 74,39 163,39l175 0c367,0 550,-119 550,-357 0,-218 -151,-327 -454,-327 -211,0 -342,13 -390,40 -49,27 -73,97 -73,209l0 193zm0 631l0 345c0,135 22,218 68,249 46,31 170,47 373,47 388,0 582,-145 582,-436 0,-267 -187,-401 -560,-401l-258 0c-112,0 -176,25 -193,75 -8,25 -12,65 -12,121z"/>
  <path id="1" class="fil1" d="M4400 8838l-112 -305c-12,-33 -25,-54 -38,-62 -14,-9 -41,-13 -83,-13l-554 0c-41,0 -70,8 -85,22 -16,15 -36,54 -61,118l-90 240c-8,23 -12,44 -12,65 0,66 40,100 121,100 21,0 50,-2 89,-7 38,-4 66,-6 85,-6 85,0 128,37 128,109 0,69 -47,103 -140,103 -17,0 -40,-2 -69,-6l-155 -18c-29,-3 -77,-4 -143,-4 -73,0 -124,1 -153,4l-130 14c-59,7 -101,10 -128,10 -81,0 -121,-34 -121,-103 0,-72 39,-109 118,-109 16,0 29,4 37,13l41 0c56,0 98,-22 127,-66 13,-17 33,-66 62,-146l579 -1570c33,-88 98,-131 196,-131 95,0 159,43 190,130l556 1543c36,98 68,162 97,193 29,31 70,47 124,47 17,0 29,-2 38,-4 58,-6 87,-9 87,-9 79,0 118,34 118,103 0,72 -39,109 -118,109 -23,0 -53,-2 -90,-6 -131,-15 -229,-22 -293,-22 -77,0 -201,7 -373,22 -44,4 -77,6 -100,6 -83,0 -124,-36 -124,-106 0,-71 46,-106 137,-106 18,0 46,2 82,6 36,5 64,7 83,7 68,0 102,-28 102,-84 0,-9 -8,-36 -25,-81zm-224 -635l-280 -858 -286 858c-4,13 -6,20 -6,22 0,19 16,28 47,28l494 0c25,0 38,-8 38,-25 0,-4 -2,-12 -7,-25z"/>
  <path id="2" class="fil1" d="M6827 7046c203,0 369,65 497,196l0 -44c0,-83 32,-124 97,-124 70,0 105,45 105,134l0 19c0,4 -3,35 -9,93 -6,58 -9,127 -9,208 0,11 2,44 6,100l9 124c2,11 3,25 3,44 0,99 -38,149 -115,149 -81,0 -121,-41 -121,-124 0,-10 0,-15 0,-15l6 -84c2,-29 3,-52 3,-68 0,-124 -42,-221 -126,-291 -84,-70 -199,-105 -346,-105 -135,0 -243,33 -322,99 -80,67 -120,156 -120,268 0,130 59,227 177,289 67,33 183,63 349,90 246,40 415,93 507,162 136,102 205,246 205,432 0,195 -70,354 -210,476 -139,123 -320,184 -541,184 -236,0 -432,-75 -587,-224 0,8 0,17 0,27 0,11 0,17 0,19 9,33 13,54 13,64 0,76 -39,114 -115,114 -83,0 -125,-44 -125,-131 0,-10 3,-19 10,-25l12 -162c6,-80 9,-132 9,-155 0,-42 -5,-104 -15,-187 -11,-83 -16,-145 -16,-186 0,-94 40,-140 118,-140 81,0 122,47 122,141l0 56c0,17 0,41 0,72 0,157 50,281 149,374 99,91 233,137 403,137 157,0 282,-37 375,-112 93,-75 140,-176 140,-305 0,-197 -125,-318 -374,-361l-177 -31c-176,-32 -313,-68 -410,-110 -90,-39 -161,-101 -214,-185 -52,-84 -79,-179 -79,-285 0,-183 67,-331 199,-445 133,-115 305,-172 517,-172z"/>
  <path id="3" class="fil1" d="M9256 9230c-170,0 -275,-74 -314,-221 -106,155 -272,233 -498,233 -168,0 -302,-41 -403,-124 -100,-83 -151,-194 -151,-333 0,-172 74,-299 221,-380 56,-31 104,-51 145,-60 40,-10 122,-21 244,-36 174,-19 288,-45 341,-78 53,-33 79,-94 79,-183 0,-85 -30,-152 -89,-201 -59,-49 -141,-73 -247,-73 -93,0 -180,26 -261,78 -31,21 -47,42 -47,65 0,8 9,19 28,31 29,21 44,56 44,106 0,41 -15,76 -45,103 -31,27 -68,40 -114,40 -54,0 -99,-19 -135,-56 -37,-37 -55,-83 -55,-137 0,-116 58,-215 173,-298 115,-83 254,-125 418,-125 378,0 566,181 566,543l0 627c0,100 2,159 7,177 12,73 47,109 105,109 73,0 109,-66 109,-198l0 -151c0,-66 32,-99 95,-99 67,0 101,50 101,149l0 16 0 177c-4,199 -110,299 -317,299zm-348 -619l0 -221c-46,41 -94,70 -145,87 -50,17 -141,31 -271,44 -235,22 -353,109 -353,261 0,79 29,141 86,186 57,46 134,69 232,69 138,0 248,-38 328,-114 79,-75 120,-180 123,-312z"/>
  <path id="4" class="fil1" d="M10254 7889l0 967c2,106 31,159 85,159 13,0 39,-5 79,-13 25,-4 42,-6 50,-6 69,0 104,35 104,105 0,67 -43,101 -127,101 -34,0 -86,-4 -158,-13 -73,-8 -129,-12 -168,-12 -33,0 -82,4 -149,12 -66,9 -114,13 -145,13l-16 0c-87,0 -130,-37 -130,-111 0,-63 36,-95 107,-95 4,0 11,0 22,0 12,3 22,4 28,4 52,10 82,15 91,15 38,0 61,-16 71,-48 9,-33 15,-116 17,-252l3 -218 0 -484 0 -556c-2,-62 -5,-103 -9,-125 -15,-47 -44,-71 -87,-71 -7,0 -34,4 -81,12 -23,4 -42,6 -56,6 -71,0 -106,-33 -106,-101 0,-69 41,-104 124,-104 23,0 43,1 59,4l75 11c33,4 61,7 84,7 21,0 52,-4 93,-11 42,-7 73,-11 94,-11 47,0 71,30 71,90 0,21 -1,37 -3,47 -14,160 -22,386 -22,678z"/>
  <path id="5" class="fil1" d="M11349 9242c-217,0 -392,-75 -522,-225 -131,-151 -196,-352 -196,-605 0,-253 66,-455 197,-605 132,-151 309,-226 531,-226 226,0 404,74 535,221 130,147 196,347 196,600 0,253 -68,457 -203,610 -134,153 -314,230 -538,230zm17 -1456c-145,0 -260,51 -343,153 -83,101 -129,246 -137,432 0,0 0,14 0,41 0,195 41,348 123,458 82,111 197,167 345,167 152,0 271,-56 357,-167 87,-110 130,-264 130,-461 0,-415 -158,-623 -475,-623z"/>
  <path id="6" class="fil1" d="M12808 7729l0 89c125,-158 290,-237 498,-237 112,0 218,29 317,86 100,57 167,128 202,213 29,70 44,163 44,277l0 591c0,89 1,142 3,158 10,71 38,106 84,106 19,0 43,-3 73,-8 30,-5 51,-8 64,-8 27,0 50,10 70,28 19,19 29,42 29,69 0,31 -12,57 -37,78 -25,20 -55,31 -90,31 -29,0 -77,-4 -143,-13 -67,-8 -129,-12 -187,-12 -54,0 -98,2 -134,6 -103,13 -158,19 -165,19 -83,0 -124,-37 -124,-109 0,-64 36,-97 108,-97 17,0 36,3 57,7 40,8 66,12 76,12 51,0 78,-57 83,-171l0 -159 0 -189 0 -237c0,-110 -6,-185 -16,-227 -19,-79 -59,-140 -121,-183 -68,-48 -146,-72 -232,-72 -165,0 -284,59 -357,177 -49,81 -74,219 -74,414l0 414c0,91 6,153 19,186 12,34 35,50 68,50 17,0 40,-3 69,-11 29,-7 53,-11 71,-11 64,0 97,35 97,105 0,67 -42,101 -125,101 -16,0 -70,-6 -162,-19 -45,-6 -96,-9 -152,-9 -44,0 -102,4 -174,12 -91,11 -143,16 -156,16 -87,0 -130,-36 -130,-106 0,-66 33,-100 101,-100 11,0 30,4 59,10 28,6 56,9 84,9 63,0 96,-60 98,-180l0 -346 0 -376 0 -109c-4,-70 -13,-119 -27,-144 -14,-26 -37,-39 -71,-39 -15,0 -37,3 -65,9 -29,6 -50,9 -65,9 -76,0 -114,-33 -114,-101 0,-69 46,-104 140,-104 12,0 22,1 31,3l115 13c33,0 62,-3 87,-8 54,-5 82,-8 84,-8 60,0 90,32 90,95z"/>
  <path id="7" class="fil1" d="M14968 7581c138,0 254,36 347,109l0 -12c0,-77 33,-116 100,-116 68,0 102,34 102,100 0,12 -1,44 -5,93 -7,42 -10,83 -10,125 0,25 2,61 8,109 5,47 7,84 7,108 0,79 -33,119 -101,119 -65,0 -99,-33 -101,-100l0 -102c-2,-63 -38,-116 -108,-161 -70,-44 -151,-67 -245,-67 -96,0 -176,25 -240,74 -65,48 -97,109 -97,182 0,132 91,211 274,236l181 25c354,47 531,194 531,438 0,150 -57,270 -171,363 -113,92 -263,138 -447,138 -171,0 -320,-49 -446,-146 0,21 0,40 0,59 0,75 -35,112 -106,112 -77,0 -115,-42 -115,-127 0,14 6,-40 19,-162 4,-29 6,-58 6,-87 0,-50 -4,-97 -13,-140 -8,-44 -12,-78 -12,-103 0,-73 33,-109 100,-109 43,0 71,11 82,31 11,21 18,76 20,165 2,89 49,162 140,218 91,56 208,84 349,84 101,0 185,-26 252,-78 66,-52 99,-117 99,-196 0,-141 -112,-223 -336,-246 -213,-22 -376,-64 -488,-126 -112,-61 -168,-168 -168,-321 0,-146 55,-263 164,-354 110,-90 252,-135 428,-135z"/>
  <path id="8" class="fil2 str0" d="M2559 7603c0,211 -120,361 -361,448 87,27 159,57 215,90 168,98 252,244 252,439 0,190 -74,342 -221,455 -147,113 -344,170 -591,170 -89,0 -202,-5 -339,-16 -137,-10 -238,-15 -302,-15 -56,0 -109,3 -159,9l-146 19c-4,0 -11,1 -21,3 -11,0 -18,0 -22,0 -89,-2 -134,-40 -134,-112 0,-66 32,-100 96,-100 17,0 45,3 84,10 27,4 49,6 66,6 105,0 158,-77 158,-230l0 -1251c0,-155 -53,-233 -158,-233 -19,0 -41,2 -66,6 -37,6 -65,10 -84,10 -64,0 -96,-34 -96,-100 0,-73 48,-109 143,-109l41 0 152 22c43,6 103,9 177,9 79,0 191,-6 336,-18 98,-9 202,-13 314,-13 210,0 373,44 490,132 117,88 176,211 176,369zm-1191 134c0,110 9,177 29,203 20,26 74,39 163,39l175 0c367,0 550,-119 550,-357 0,-218 -151,-327 -454,-327 -211,0 -342,13 -390,40 -49,27 -73,97 -73,209l0 193zm0 631l0 345c0,135 22,218 68,249 46,31 170,47 373,47 388,0 582,-145 582,-436 0,-267 -187,-401 -560,-401l-258 0c-112,0 -176,25 -193,75 -8,25 -12,65 -12,121z"/>
  <path id="9" class="fil2 str0" d="M4400 8838l-112 -305c-12,-33 -25,-54 -38,-62 -14,-9 -41,-13 -83,-13l-554 0c-41,0 -70,8 -85,22 -16,15 -36,54 -61,118l-90 240c-8,23 -12,44 -12,65 0,66 40,100 121,100 21,0 50,-2 89,-7 38,-4 66,-6 85,-6 85,0 128,37 128,109 0,69 -47,103 -140,103 -17,0 -40,-2 -69,-6l-155 -18c-29,-3 -77,-4 -143,-4 -73,0 -124,1 -153,4l-130 14c-59,7 -101,10 -128,10 -81,0 -121,-34 -121,-103 0,-72 39,-109 118,-109 16,0 29,4 37,13l41 0c56,0 98,-22 127,-66 13,-17 33,-66 62,-146l579 -1570c33,-88 98,-131 196,-131 95,0 159,43 190,130l556 1543c36,98 68,162 97,193 29,31 70,47 124,47 17,0 29,-2 38,-4 58,-6 87,-9 87,-9 79,0 118,34 118,103 0,72 -39,109 -118,109 -23,0 -53,-2 -90,-6 -131,-15 -229,-22 -293,-22 -77,0 -201,7 -373,22 -44,4 -77,6 -100,6 -83,0 -124,-36 -124,-106 0,-71 46,-106 137,-106 18,0 46,2 82,6 36,5 64,7 83,7 68,0 102,-28 102,-84 0,-9 -8,-36 -25,-81zm-224 -635l-280 -858 -286 858c-4,13 -6,20 -6,22 0,19 16,28 47,28l494 0c25,0 38,-8 38,-25 0,-4 -2,-12 -7,-25z"/>
  <path id="10" class="fil2 str0" d="M6827 7046c203,0 369,65 497,196l0 -44c0,-83 32,-124 97,-124 70,0 105,45 105,134l0 19c0,4 -3,35 -9,93 -6,58 -9,127 -9,208 0,11 2,44 6,100l9 124c2,11 3,25 3,44 0,99 -38,149 -115,149 -81,0 -121,-41 -121,-124 0,-10 0,-15 0,-15l6 -84c2,-29 3,-52 3,-68 0,-124 -42,-221 -126,-291 -84,-70 -199,-105 -346,-105 -135,0 -243,33 -322,99 -80,67 -120,156 -120,268 0,130 59,227 177,289 67,33 183,63 349,90 246,40 415,93 507,162 136,102 205,246 205,432 0,195 -70,354 -210,476 -139,123 -320,184 -541,184 -236,0 -432,-75 -587,-224 0,8 0,17 0,27 0,11 0,17 0,19 9,33 13,54 13,64 0,76 -39,114 -115,114 -83,0 -125,-44 -125,-131 0,-10 3,-19 10,-25l12 -162c6,-80 9,-132 9,-155 0,-42 -5,-104 -15,-187 -11,-83 -16,-145 -16,-186 0,-94 40,-140 118,-140 81,0 122,47 122,141l0 56c0,17 0,41 0,72 0,157 50,281 149,374 99,91 233,137 403,137 157,0 282,-37 375,-112 93,-75 140,-176 140,-305 0,-197 -125,-318 -374,-361l-177 -31c-176,-32 -313,-68 -410,-110 -90,-39 -161,-101 -214,-185 -52,-84 -79,-179 -79,-285 0,-183 67,-331 199,-445 133,-115 305,-172 517,-172z"/>
  <path id="11" class="fil2 str0" d="M9256 9230c-170,0 -275,-74 -314,-221 -106,155 -272,233 -498,233 -168,0 -302,-41 -403,-124 -100,-83 -151,-194 -151,-333 0,-172 74,-299 221,-380 56,-31 104,-51 145,-60 40,-10 122,-21 244,-36 174,-19 288,-45 341,-78 53,-33 79,-94 79,-183 0,-85 -30,-152 -89,-201 -59,-49 -141,-73 -247,-73 -93,0 -180,26 -261,78 -31,21 -47,42 -47,65 0,8 9,19 28,31 29,21 44,56 44,106 0,41 -15,76 -45,103 -31,27 -68,40 -114,40 -54,0 -99,-19 -135,-56 -37,-37 -55,-83 -55,-137 0,-116 58,-215 173,-298 115,-83 254,-125 418,-125 378,0 566,181 566,543l0 627c0,100 2,159 7,177 12,73 47,109 105,109 73,0 109,-66 109,-198l0 -151c0,-66 32,-99 95,-99 67,0 101,50 101,149l0 16 0 177c-4,199 -110,299 -317,299zm-348 -619l0 -221c-46,41 -94,70 -145,87 -50,17 -141,31 -271,44 -235,22 -353,109 -353,261 0,79 29,141 86,186 57,46 134,69 232,69 138,0 248,-38 328,-114 79,-75 120,-180 123,-312z"/>
  <path id="12" class="fil2 str0" d="M10254 7889l0 967c2,106 31,159 85,159 13,0 39,-5 79,-13 25,-4 42,-6 50,-6 69,0 104,35 104,105 0,67 -43,101 -127,101 -34,0 -86,-4 -158,-13 -73,-8 -129,-12 -168,-12 -33,0 -82,4 -149,12 -66,9 -114,13 -145,13l-16 0c-87,0 -130,-37 -130,-111 0,-63 36,-95 107,-95 4,0 11,0 22,0 12,3 22,4 28,4 52,10 82,15 91,15 38,0 61,-16 71,-48 9,-33 15,-116 17,-252l3 -218 0 -484 0 -556c-2,-62 -5,-103 -9,-125 -15,-47 -44,-71 -87,-71 -7,0 -34,4 -81,12 -23,4 -42,6 -56,6 -71,0 -106,-33 -106,-101 0,-69 41,-104 124,-104 23,0 43,1 59,4l75 11c33,4 61,7 84,7 21,0 52,-4 93,-11 42,-7 73,-11 94,-11 47,0 71,30 71,90 0,21 -1,37 -3,47 -14,160 -22,386 -22,678z"/>
  <path id="13" class="fil2 str0" d="M11349 9242c-217,0 -392,-75 -522,-225 -131,-151 -196,-352 -196,-605 0,-253 66,-455 197,-605 132,-151 309,-226 531,-226 226,0 404,74 535,221 130,147 196,347 196,600 0,253 -68,457 -203,610 -134,153 -314,230 -538,230zm17 -1456c-145,0 -260,51 -343,153 -83,101 -129,246 -137,432 0,0 0,14 0,41 0,195 41,348 123,458 82,111 197,167 345,167 152,0 271,-56 357,-167 87,-110 130,-264 130,-461 0,-415 -158,-623 -475,-623z"/>
  <path id="14" class="fil2 str0" d="M12808 7729l0 89c125,-158 290,-237 498,-237 112,0 218,29 317,86 100,57 167,128 202,213 29,70 44,163 44,277l0 591c0,89 1,142 3,158 10,71 38,106 84,106 19,0 43,-3 73,-8 30,-5 51,-8 64,-8 27,0 50,10 70,28 19,19 29,42 29,69 0,31 -12,57 -37,78 -25,20 -55,31 -90,31 -29,0 -77,-4 -143,-13 -67,-8 -129,-12 -187,-12 -54,0 -98,2 -134,6 -103,13 -158,19 -165,19 -83,0 -124,-37 -124,-109 0,-64 36,-97 108,-97 17,0 36,3 57,7 40,8 66,12 76,12 51,0 78,-57 83,-171l0 -159 0 -189 0 -237c0,-110 -6,-185 -16,-227 -19,-79 -59,-140 -121,-183 -68,-48 -146,-72 -232,-72 -165,0 -284,59 -357,177 -49,81 -74,219 -74,414l0 414c0,91 6,153 19,186 12,34 35,50 68,50 17,0 40,-3 69,-11 29,-7 53,-11 71,-11 64,0 97,35 97,105 0,67 -42,101 -125,101 -16,0 -70,-6 -162,-19 -45,-6 -96,-9 -152,-9 -44,0 -102,4 -174,12 -91,11 -143,16 -156,16 -87,0 -130,-36 -130,-106 0,-66 33,-100 101,-100 11,0 30,4 59,10 28,6 56,9 84,9 63,0 96,-60 98,-180l0 -346 0 -376 0 -109c-4,-70 -13,-119 -27,-144 -14,-26 -37,-39 -71,-39 -15,0 -37,3 -65,9 -29,6 -50,9 -65,9 -76,0 -114,-33 -114,-101 0,-69 46,-104 140,-104 12,0 22,1 31,3l115 13c33,0 62,-3 87,-8 54,-5 82,-8 84,-8 60,0 90,32 90,95z"/>
  <path id="15" class="fil2 str0" d="M14968 7581c138,0 254,36 347,109l0 -12c0,-77 33,-116 100,-116 68,0 102,34 102,100 0,12 -1,44 -5,93 -7,42 -10,83 -10,125 0,25 2,61 8,109 5,47 7,84 7,108 0,79 -33,119 -101,119 -65,0 -99,-33 -101,-100l0 -102c-2,-63 -38,-116 -108,-161 -70,-44 -151,-67 -245,-67 -96,0 -176,25 -240,74 -65,48 -97,109 -97,182 0,132 91,211 274,236l181 25c354,47 531,194 531,438 0,150 -57,270 -171,363 -113,92 -263,138 -447,138 -171,0 -320,-49 -446,-146 0,21 0,40 0,59 0,75 -35,112 -106,112 -77,0 -115,-42 -115,-127 0,14 6,-40 19,-162 4,-29 6,-58 6,-87 0,-50 -4,-97 -13,-140 -8,-44 -12,-78 -12,-103 0,-73 33,-109 100,-109 43,0 71,11 82,31 11,21 18,76 20,165 2,89 49,162 140,218 91,56 208,84 349,84 101,0 185,-26 252,-78 66,-52 99,-117 99,-196 0,-141 -112,-223 -336,-246 -213,-22 -376,-64 -488,-126 -112,-61 -168,-168 -168,-321 0,-146 55,-263 164,-354 110,-90 252,-135 428,-135z"/>
  <path class="fil1" d="M4866 10510l-331 0 -33 83 32 0c35,0 59,7 73,19 14,13 21,29 21,49 0,21 -7,37 -21,50 -14,12 -38,19 -73,19l-179 0c-34,0 -58,-7 -72,-19 -14,-13 -21,-30 -21,-50 0,-21 7,-37 21,-49 14,-13 38,-19 72,-19l215 -534 -88 0c-34,0 -58,-7 -72,-19 -14,-13 -21,-29 -21,-50 0,-20 7,-36 21,-49 14,-12 38,-19 72,-19l293 0 271 671c34,0 56,4 65,13 19,16 28,35 28,55 0,21 -7,37 -21,50 -14,12 -38,19 -72,19l-179 0c-35,0 -58,-7 -72,-19 -14,-13 -21,-30 -21,-50 0,-21 7,-37 21,-49 14,-13 37,-19 72,-19l32 0 -33 -83zm-56 -136l-109 -271 -110 271 219 0z"/>
  <path id="1" class="fil1" d="M5642 10193l0 331c0,41 -7,74 -21,99 -21,38 -52,68 -92,90 -40,22 -83,33 -127,33 -57,0 -135,-24 -234,-72l0 -180c0,-26 5,-45 15,-56 11,-12 24,-17 40,-17 16,0 29,5 39,17 10,11 15,30 15,56l0 107c50,24 93,36 129,36 18,0 38,-4 58,-13 20,-9 36,-19 46,-31 10,-12 17,-24 20,-36 2,-7 3,-22 3,-46l0 -318 -133 0c-27,0 -47,-5 -58,-15 -11,-10 -17,-23 -17,-40 0,-16 6,-29 17,-39 11,-10 31,-15 58,-15l306 0c27,0 46,5 58,14 11,10 16,23 16,40 0,16 -5,29 -16,39 -12,11 -31,16 -58,16l-64 0z"/>
  <path id="2" class="fil1" d="M6342 10193l0 310c0,67 -25,125 -73,172 -49,47 -107,71 -175,71 -34,0 -66,-6 -95,-18 -30,-12 -57,-29 -80,-52 -24,-23 -42,-48 -55,-73 -13,-25 -20,-58 -20,-100l0 -310c-27,0 -46,-5 -58,-16 -11,-10 -16,-23 -16,-39 0,-17 5,-30 16,-40 12,-9 31,-14 58,-14l148 0c24,0 41,5 52,15 11,10 17,23 17,39 0,17 -6,30 -17,40 -11,10 -28,15 -52,15l-39 0 0 320c0,32 14,61 41,86 27,25 60,38 98,38 26,0 50,-6 72,-18 23,-12 41,-30 55,-53 9,-15 13,-32 13,-53l0 -320 -39 0c-23,0 -41,-5 -52,-15 -11,-10 -17,-23 -17,-40 0,-16 6,-29 17,-39 11,-10 29,-15 52,-15l149 0c27,0 46,5 57,14 11,10 17,23 17,40 0,16 -6,29 -17,39 -11,11 -30,16 -57,16z"/>
  <path id="3" class="fil1" d="M6634 10483l0 138 39 0c28,0 47,5 58,15 11,10 17,23 17,39 0,16 -6,30 -17,40 -11,10 -30,15 -58,15l-165 0c-27,0 -47,-5 -58,-16 -11,-10 -17,-23 -17,-39 0,-17 6,-30 17,-40 11,-10 31,-14 58,-14l17 0 0 -428 -17 0c-27,0 -47,-5 -58,-15 -11,-10 -17,-23 -17,-40 0,-16 6,-29 17,-39 11,-10 31,-15 58,-15l247 0c77,0 137,19 179,57 42,38 64,85 64,139 0,35 -10,66 -30,94 -20,27 -51,52 -91,74 23,20 47,46 73,78 17,20 39,52 66,95 27,0 45,3 53,10 14,13 21,28 21,44 0,16 -5,30 -16,40 -12,10 -31,15 -58,15l-56 0c-87,-137 -160,-219 -218,-247l-108 0zm0 -109l85 0c32,0 60,-5 85,-14 33,-13 56,-27 67,-41 12,-14 17,-28 17,-42 0,-21 -10,-40 -32,-58 -22,-17 -55,-26 -97,-26l-125 0 0 181z"/>
  <path id="4" class="fil1" d="M7401 10570l158 -377 -25 0c-27,0 -47,-5 -58,-15 -11,-10 -17,-23 -17,-40 0,-16 6,-29 17,-39 11,-10 31,-15 58,-15l144 0c27,0 46,5 57,14 11,10 17,23 17,40 0,16 -8,31 -23,45 -7,6 -24,10 -51,10l-226 537 -103 0 -224 -537c-27,0 -44,-4 -51,-10 -15,-14 -23,-28 -23,-45 0,-16 6,-29 17,-39 11,-10 30,-15 57,-15l144 0c27,0 47,5 58,14 11,10 17,23 17,40 0,16 -6,29 -17,39 -11,11 -31,16 -58,16l-25 0 157 377z"/>
  <path id="5" class="fil1" d="M7944 10460l0 161 278 0 0 -59c0,-27 5,-47 16,-58 10,-11 23,-17 39,-17 17,0 30,6 40,17 10,11 14,31 14,58l0 168 -514 0c-27,0 -46,-5 -57,-16 -11,-10 -17,-23 -17,-39 0,-17 6,-30 17,-40 11,-10 30,-14 57,-14l18 0 0 -428 -18 0c-27,0 -46,-5 -57,-15 -11,-10 -17,-23 -17,-40 0,-16 6,-29 17,-39 11,-10 30,-15 57,-15l492 0 0 166c0,27 -5,46 -15,57 -10,11 -23,17 -39,17 -17,0 -30,-6 -40,-17 -10,-11 -16,-30 -16,-57l0 -57 -255 0 0 158 96 0c0,-27 3,-44 10,-51 14,-16 29,-23 45,-23 17,0 30,5 39,17 10,11 15,30 15,57l0 109c0,27 -3,45 -10,52 -13,15 -27,22 -44,22 -16,0 -31,-7 -45,-23 -7,-7 -10,-24 -10,-51l-96 0zm239 -446l-253 0c-16,0 -28,-3 -35,-10 -7,-7 -11,-15 -11,-25 0,-10 4,-19 11,-25 7,-7 19,-10 35,-10l253 0c16,0 28,3 35,10 7,6 11,15 11,25 0,10 -4,18 -11,25 -7,7 -19,10 -35,10z"/>
  <path id="6" class="fil1" d="M8467 10621l0 -428c-27,0 -46,-5 -58,-15 -11,-10 -16,-23 -16,-40 0,-16 5,-29 16,-39 12,-10 31,-15 58,-15l231 0c36,0 71,7 105,20 34,13 62,30 83,50 15,15 32,36 49,63 17,26 30,53 38,79 9,26 13,58 13,96l0 53c0,46 -7,87 -23,122 -16,36 -37,65 -62,88 -26,22 -50,39 -73,50 -36,16 -82,25 -139,25l-222 0c-27,0 -46,-5 -58,-16 -11,-10 -16,-23 -16,-39 0,-17 5,-30 16,-40 12,-10 31,-14 58,-14zm109 0l116 0c44,0 76,-7 98,-19 29,-17 51,-37 65,-63 15,-25 22,-57 22,-98l0 -51c0,-35 -6,-65 -19,-91 -21,-41 -44,-68 -70,-83 -26,-16 -58,-23 -97,-23l-115 0 0 428z"/>
  <path id="7" class="fil1" d="M9421 10193l0 428 110 0c27,0 46,5 58,15 11,10 16,23 16,39 0,16 -5,30 -16,40 -12,10 -31,15 -58,15l-329 0c-28,0 -47,-5 -58,-16 -11,-10 -17,-23 -17,-39 0,-17 6,-30 17,-40 11,-10 30,-14 58,-14l110 0 0 -428 -110 0c-28,0 -47,-5 -58,-15 -11,-10 -17,-23 -17,-40 0,-16 6,-29 17,-39 11,-10 30,-15 58,-15l329 0c27,0 46,5 58,14 11,10 16,23 16,40 0,16 -5,29 -16,39 -12,11 -31,16 -58,16l-110 0z"/>
  <path id="8" class="fil1" d="M9862 10702c-10,12 -17,19 -23,23 -6,3 -13,5 -22,5 -17,0 -30,-6 -40,-17 -10,-11 -15,-30 -15,-56l0 -74c0,-26 5,-45 15,-56 10,-11 23,-17 40,-17 13,0 24,4 32,11 9,6 16,17 20,33 5,16 10,27 15,32 10,11 28,23 55,34 26,11 54,17 86,17 48,0 88,-12 119,-34 20,-14 30,-31 30,-51 0,-14 -5,-27 -14,-39 -10,-12 -25,-21 -47,-29 -14,-6 -46,-13 -94,-22 -60,-11 -105,-24 -135,-40 -31,-16 -55,-38 -73,-66 -18,-29 -27,-59 -27,-92 0,-53 22,-99 66,-138 43,-39 100,-59 169,-59 28,0 54,3 78,10 24,6 46,16 65,28 14,-13 29,-20 43,-20 16,0 30,5 40,17 10,11 15,29 15,55l0 83c0,26 -5,45 -15,56 -10,11 -23,17 -39,17 -14,0 -25,-4 -35,-13 -8,-6 -14,-18 -18,-36 -4,-18 -9,-31 -15,-39 -10,-14 -26,-25 -46,-35 -21,-9 -44,-14 -71,-14 -39,0 -70,9 -93,28 -23,18 -34,37 -34,57 0,14 4,27 14,39 9,13 23,23 41,30 12,5 45,13 101,24 55,11 98,23 128,36 30,14 55,34 75,62 20,28 30,62 30,101 0,54 -19,97 -57,129 -50,43 -115,64 -193,64 -30,0 -59,-4 -88,-11 -28,-7 -56,-18 -83,-33z"/>
  <path id="9" class="fil1" d="M10563 10499l0 122 39 0c23,0 41,5 52,15 11,10 17,23 17,39 0,16 -6,30 -17,40 -11,10 -29,15 -52,15l-166 0c-23,0 -41,-5 -52,-16 -11,-10 -17,-23 -17,-39 0,-17 6,-30 17,-40 11,-10 29,-14 52,-14l18 0 0 -428 -18 0c-23,0 -41,-5 -52,-15 -11,-10 -17,-23 -17,-40 0,-16 6,-29 17,-39 11,-10 29,-15 52,-15l166 0c23,0 41,5 52,14 11,10 17,23 17,40 0,16 -6,29 -17,39 -11,11 -29,16 -52,16l-39 0 0 162 194 -167c2,0 -3,-4 -14,-12 -11,-8 -17,-20 -17,-37 0,-16 6,-29 17,-40 11,-10 16,-15 14,-15l159 0c27,0 46,5 58,14 11,10 16,23 16,40 0,16 -5,29 -16,39 -12,11 -31,16 -58,16l-198 171c37,21 72,53 104,96 32,43 61,97 86,161l29 0c27,0 46,5 57,15 12,10 17,23 17,39 0,16 -5,30 -17,40 -11,10 -30,15 -57,15l-99 0c-23,-55 -48,-107 -75,-157 -22,-40 -43,-69 -62,-88 -20,-18 -44,-33 -72,-44l-66 58z"/>
  <path id="10" class="fil1" d="M11464 10554l-265 0 -26 67 26 0c27,0 46,5 58,15 11,10 16,23 16,39 0,16 -5,30 -16,40 -12,10 -31,15 -58,15l-144 0c-27,0 -46,-5 -57,-16 -12,-10 -17,-23 -17,-39 0,-17 5,-30 17,-40 11,-10 30,-14 57,-14l172 -428 -70 0c-28,0 -47,-5 -58,-15 -11,-10 -17,-23 -17,-40 0,-16 6,-29 17,-39 11,-10 30,-15 58,-15l234 0 217 537c27,0 45,3 52,9 15,14 23,29 23,45 0,16 -6,30 -17,40 -12,10 -31,15 -58,15l-144 0c-27,0 -46,-5 -57,-16 -11,-10 -17,-23 -17,-39 0,-17 6,-30 17,-40 11,-10 30,-14 57,-14l27 0 -27 -67zm-44 -109l-88 -217 -88 217 176 0zm39 -431l-253 0c-16,0 -28,-3 -35,-10 -8,-7 -11,-15 -11,-25 0,-10 3,-19 11,-25 7,-7 19,-10 35,-10l253 0c16,0 28,3 35,10 7,6 11,15 11,25 0,10 -4,18 -11,25 -8,7 -19,10 -35,10z"/>
  <path id="11" class="fil1" d="M11827 10702c-10,12 -18,19 -24,23 -5,3 -13,5 -21,5 -17,0 -30,-6 -40,-17 -11,-11 -16,-30 -16,-56l0 -74c0,-26 5,-45 16,-56 10,-11 23,-17 40,-17 13,0 23,4 32,11 9,6 15,17 20,33 5,16 10,27 15,32 10,11 28,23 54,34 26,11 55,17 87,17 48,0 88,-12 119,-34 20,-14 30,-31 30,-51 0,-14 -5,-27 -15,-39 -9,-12 -24,-21 -46,-29 -14,-6 -46,-13 -95,-22 -59,-11 -104,-24 -134,-40 -31,-16 -55,-38 -73,-66 -18,-29 -27,-59 -27,-92 0,-53 22,-99 66,-138 43,-39 100,-59 169,-59 28,0 54,3 78,10 24,6 45,16 65,28 14,-13 29,-20 43,-20 16,0 29,5 40,17 10,11 15,29 15,55l0 83c0,26 -5,45 -15,56 -10,11 -23,17 -39,17 -14,0 -26,-4 -36,-13 -7,-6 -13,-18 -17,-36 -4,-18 -9,-31 -15,-39 -10,-14 -26,-25 -46,-35 -21,-9 -45,-14 -71,-14 -40,0 -71,9 -93,28 -23,18 -35,37 -35,57 0,14 5,27 14,39 10,13 23,23 41,30 12,5 46,13 102,24 55,11 98,23 128,36 30,14 55,34 75,62 20,28 30,62 30,101 0,54 -19,97 -57,129 -50,43 -115,64 -193,64 -30,0 -59,-4 -88,-11 -29,-7 -56,-18 -83,-33z"/>
  <path id="12" class="fil1" d="M5227 11554l0 152 49 0c29,0 51,6 65,19 14,12 21,29 21,49 0,21 -7,37 -21,49 -14,13 -36,19 -65,19l-207 0c-30,0 -51,-6 -66,-19 -13,-13 -20,-29 -20,-50 0,-20 7,-36 20,-49 15,-12 36,-18 66,-18l21 0 0 -535 -21 0c-30,0 -51,-6 -66,-19 -13,-12 -20,-29 -20,-49 0,-21 7,-37 20,-49 15,-13 36,-19 66,-19l207 0c29,0 51,6 65,18 14,12 21,29 21,49 0,21 -7,37 -21,50 -14,13 -36,19 -65,19l-49 0 0 203 242 -208c3,0 -3,-6 -17,-16 -14,-10 -21,-25 -21,-46 0,-20 7,-37 21,-50 14,-13 20,-19 17,-19l199 0c34,0 58,6 73,18 13,12 20,29 20,49 0,21 -7,37 -20,50 -15,13 -39,19 -73,19l-247 214c46,26 89,66 130,120 40,54 76,121 107,201l37 0c33,0 57,6 71,19 14,12 21,29 21,49 0,21 -7,37 -21,49 -14,13 -38,19 -71,19l-125 0c-28,-68 -59,-133 -93,-195 -27,-50 -53,-87 -78,-110 -25,-23 -54,-41 -89,-55l-83 72z"/>
  <path id="13" class="fil1" d="M6060 11305l0 428 235 0 0 -104c0,-27 5,-46 16,-57 10,-11 23,-17 39,-17 17,0 30,6 40,17 10,11 14,30 14,57l0 213 -517 0c-27,0 -46,-5 -57,-15 -11,-10 -17,-23 -17,-40 0,-16 6,-29 17,-39 11,-10 30,-15 57,-15l63 0 0 -428 -63 0c-27,0 -46,-5 -57,-15 -11,-10 -17,-23 -17,-39 0,-17 6,-30 17,-40 11,-10 30,-15 57,-15l237 0c27,0 46,5 57,15 12,10 17,23 17,39 0,17 -5,30 -17,40 -11,10 -30,15 -57,15l-64 0z"/>
  <path id="14" class="fil1" d="M6893 11667l-264 0 -27 66 26 0c27,0 47,5 58,15 11,10 17,23 17,40 0,16 -6,29 -17,39 -11,10 -31,15 -58,15l-144 0c-27,0 -46,-5 -57,-15 -11,-10 -17,-23 -17,-40 0,-16 6,-29 17,-39 11,-10 30,-15 57,-15l173 -428 -71 0c-27,0 -46,-5 -58,-15 -11,-10 -16,-23 -16,-39 0,-17 5,-30 16,-40 12,-10 31,-15 58,-15l234 0 218 537c27,0 44,3 51,10 15,13 23,28 23,45 0,16 -6,29 -17,39 -11,10 -30,15 -57,15l-144 0c-28,0 -47,-5 -58,-15 -11,-10 -17,-23 -17,-40 0,-16 6,-29 17,-39 11,-10 30,-15 58,-15l26 0 -27 -66zm-44 -110l-88 -216 -88 216 176 0z"/>
  <path id="15" class="fil1" d="M7256 11815c-10,12 -17,19 -23,22 -6,4 -13,5 -22,5 -17,0 -30,-5 -40,-16 -10,-12 -15,-30 -15,-56l0 -74c0,-26 5,-45 15,-56 10,-11 23,-17 40,-17 13,0 24,3 32,10 9,7 16,18 20,34 5,16 10,26 15,32 10,11 28,22 55,33 26,12 54,17 86,17 48,0 88,-11 119,-34 20,-14 30,-31 30,-51 0,-13 -5,-26 -14,-38 -10,-12 -25,-22 -47,-30 -14,-5 -46,-12 -94,-21 -60,-12 -105,-25 -135,-40 -31,-16 -55,-38 -73,-67 -18,-28 -27,-59 -27,-92 0,-52 22,-98 66,-137 43,-40 100,-59 169,-59 28,0 54,3 78,9 24,6 46,16 65,29 14,-14 29,-21 43,-21 16,0 30,6 40,17 10,11 15,30 15,56l0 82c0,26 -5,45 -15,56 -10,12 -23,17 -39,17 -14,0 -25,-4 -35,-12 -8,-6 -14,-18 -18,-37 -4,-18 -9,-31 -15,-39 -10,-13 -26,-25 -46,-34 -21,-9 -44,-14 -71,-14 -39,0 -70,9 -93,27 -23,19 -34,38 -34,58 0,13 4,26 14,39 9,13 23,23 41,30 12,5 45,13 101,24 55,11 98,23 128,36 30,13 55,34 75,62 20,28 30,61 30,100 0,54 -19,97 -57,130 -50,42 -115,64 -193,64 -30,0 -59,-4 -88,-11 -28,-8 -56,-18 -83,-33z"/>
  <path id="16" class="fil1" d="M8125 11305l0 428 110 0c27,0 46,5 57,15 12,10 17,23 17,40 0,16 -5,29 -17,39 -11,10 -30,15 -57,15l-330 0c-27,0 -46,-5 -57,-15 -11,-10 -17,-23 -17,-40 0,-16 6,-29 17,-39 11,-10 30,-15 57,-15l111 0 0 -428 -111 0c-27,0 -46,-5 -57,-15 -11,-10 -17,-23 -17,-39 0,-17 6,-30 17,-40 11,-10 30,-15 57,-15l330 0c27,0 46,5 57,15 12,10 17,23 17,39 0,17 -5,30 -17,40 -11,10 -30,15 -57,15l-110 0z"/>
  <path id="17" class="fil1" d="M8566 11815c-10,12 -17,19 -23,22 -6,4 -14,5 -22,5 -17,0 -30,-5 -40,-16 -10,-12 -16,-30 -16,-56l0 -74c0,-26 6,-45 16,-56 10,-11 23,-17 40,-17 13,0 24,3 32,10 9,7 16,18 20,34 5,16 10,26 15,32 10,11 28,22 54,33 27,12 55,17 87,17 48,0 88,-11 119,-34 20,-14 30,-31 30,-51 0,-13 -5,-26 -14,-38 -10,-12 -25,-22 -47,-30 -14,-5 -46,-12 -95,-21 -59,-12 -104,-25 -134,-40 -31,-16 -55,-38 -73,-67 -18,-28 -27,-59 -27,-92 0,-52 22,-98 66,-137 43,-40 100,-59 169,-59 28,0 54,3 78,9 24,6 45,16 65,29 14,-14 29,-21 43,-21 16,0 29,6 40,17 10,11 15,30 15,56l0 82c0,26 -5,45 -15,56 -10,12 -23,17 -39,17 -14,0 -26,-4 -36,-12 -7,-6 -13,-18 -17,-37 -4,-18 -9,-31 -15,-39 -10,-13 -26,-25 -46,-34 -21,-9 -44,-14 -71,-14 -40,0 -71,9 -93,27 -23,19 -35,38 -35,58 0,13 5,26 14,39 10,13 24,23 42,30 12,5 45,13 101,24 55,11 98,23 128,36 30,13 55,34 75,62 20,28 30,61 30,100 0,54 -19,97 -57,130 -50,42 -115,64 -193,64 -30,0 -59,-4 -88,-11 -28,-8 -56,-18 -83,-33z"/>
  <path id="18" class="fil1" d="M9267 11612l0 121 39 0c23,0 41,5 52,15 11,10 17,23 17,40 0,16 -6,29 -17,39 -11,10 -29,15 -52,15l-166 0c-23,0 -41,-5 -52,-15 -11,-10 -17,-23 -17,-40 0,-16 6,-29 17,-39 11,-10 29,-15 52,-15l17 0 0 -428 -17 0c-23,0 -41,-5 -52,-15 -11,-10 -17,-23 -17,-39 0,-17 6,-30 17,-40 11,-10 29,-15 52,-15l166 0c23,0 41,5 52,15 11,10 17,23 17,39 0,17 -6,30 -17,40 -11,10 -29,15 -52,15l-39 0 0 163 194 -167c2,0 -3,-4 -14,-12 -11,-9 -17,-21 -17,-37 0,-16 6,-30 17,-40 11,-11 16,-16 14,-16l158 0c28,0 47,5 59,15 11,10 16,23 16,39 0,17 -5,30 -16,40 -12,10 -31,15 -59,15l-197 171c37,21 72,54 104,97 32,43 60,96 85,160l30 0c27,0 46,5 57,15 11,10 17,23 17,40 0,16 -6,29 -17,39 -11,10 -30,15 -57,15l-99 0c-23,-54 -48,-106 -75,-156 -22,-40 -43,-70 -63,-88 -19,-18 -43,-33 -71,-44l-66 58z"/>
  <path id="19" class="fil1" d="M10168 11667l-265 0 -27 66 27 0c27,0 46,5 57,15 12,10 17,23 17,40 0,16 -5,29 -17,39 -11,10 -30,15 -57,15l-144 0c-27,0 -46,-5 -58,-15 -11,-10 -16,-23 -16,-40 0,-16 5,-29 16,-39 12,-10 31,-15 58,-15l172 -428 -71 0c-27,0 -46,-5 -57,-15 -11,-10 -17,-23 -17,-39 0,-17 6,-30 17,-40 11,-10 30,-15 57,-15l235 0 217 537c27,0 45,3 52,10 15,13 22,28 22,45 0,16 -5,29 -16,39 -12,10 -31,15 -58,15l-144 0c-27,0 -46,-5 -57,-15 -11,-10 -17,-23 -17,-40 0,-16 6,-29 17,-39 11,-10 30,-15 57,-15l27 0 -27 -66zm-45 -110l-87 -216 -88 216 175 0zm40 -431l-253 0c-16,0 -28,-3 -35,-9 -8,-7 -11,-15 -11,-26 0,-10 3,-18 11,-25 7,-6 19,-9 35,-9l253 0c16,0 28,3 35,9 7,7 11,15 11,25 0,11 -4,19 -11,26 -8,6 -19,9 -35,9z"/>
  <path id="20" class="fil1" d="M10531 11815c-10,12 -18,19 -24,22 -5,4 -13,5 -21,5 -17,0 -31,-5 -41,-16 -10,-12 -15,-30 -15,-56l0 -74c0,-26 5,-45 15,-56 10,-11 24,-17 41,-17 13,0 23,3 32,10 9,7 15,18 20,34 5,16 10,26 14,32 11,11 29,22 55,33 26,12 55,17 86,17 49,0 89,-11 120,-34 20,-14 30,-31 30,-51 0,-13 -5,-26 -15,-38 -9,-12 -25,-22 -46,-30 -14,-5 -46,-12 -95,-21 -59,-12 -104,-25 -135,-40 -30,-16 -54,-38 -72,-67 -18,-28 -27,-59 -27,-92 0,-52 22,-98 65,-137 44,-40 100,-59 170,-59 28,0 54,3 78,9 24,6 45,16 65,29 14,-14 28,-21 43,-21 16,0 29,6 39,17 11,11 16,30 16,56l0 82c0,26 -5,45 -15,56 -10,12 -23,17 -39,17 -14,0 -26,-4 -36,-12 -8,-6 -13,-18 -17,-37 -4,-18 -9,-31 -15,-39 -10,-13 -26,-25 -47,-34 -20,-9 -44,-14 -70,-14 -40,0 -71,9 -94,27 -22,19 -34,38 -34,58 0,13 5,26 14,39 10,13 23,23 41,30 12,5 46,13 102,24 55,11 98,23 128,36 30,13 55,34 75,62 20,28 30,61 30,100 0,54 -19,97 -57,130 -50,42 -115,64 -193,64 -30,0 -60,-4 -88,-11 -29,-8 -56,-18 -83,-33z"/>
  <path id="21" class="fil1" d="M6070 12921c-12,14 -22,24 -29,28 -7,4 -16,6 -27,6 -21,0 -38,-7 -50,-21 -13,-14 -19,-37 -19,-70l0 -92c0,-33 6,-56 19,-70 12,-14 29,-21 50,-21 16,0 29,4 40,12 11,9 19,23 25,42 6,20 12,34 18,41 13,14 36,27 69,42 32,14 68,21 108,21 60,0 110,-14 149,-43 25,-17 37,-39 37,-64 0,-17 -6,-33 -18,-47 -12,-15 -31,-28 -58,-38 -17,-6 -57,-15 -118,-27 -74,-14 -130,-30 -169,-50 -38,-19 -68,-47 -90,-83 -23,-35 -34,-73 -34,-115 0,-65 27,-122 82,-172 54,-49 125,-73 212,-73 35,0 67,4 97,12 30,7 57,19 81,36 18,-18 36,-26 54,-26 20,0 37,7 50,21 13,14 19,37 19,69l0 103c0,33 -6,57 -19,71 -13,14 -29,21 -49,21 -17,0 -32,-5 -44,-16 -10,-7 -17,-22 -22,-45 -5,-23 -11,-40 -19,-49 -13,-17 -32,-32 -58,-43 -25,-12 -55,-18 -88,-18 -49,0 -88,12 -117,35 -28,23 -42,46 -42,71 0,17 6,34 17,49 12,16 29,28 51,37 15,6 58,16 127,30 69,14 123,29 161,46 37,16 68,42 93,77 25,35 38,77 38,125 0,68 -24,122 -72,162 -63,54 -143,80 -241,80 -37,0 -74,-4 -110,-13 -36,-9 -70,-23 -104,-41z"/>
  <path id="22" class="fil1" d="M7009 12678l0 140 138 0c33,0 57,7 71,19 14,13 21,29 21,50 0,20 -7,36 -21,49 -14,12 -38,19 -71,19l-296 0c-34,0 -58,-7 -72,-19 -14,-13 -21,-30 -21,-50 0,-21 7,-37 21,-49 14,-12 38,-19 72,-19l21 0 0 -534 -21 0c-34,0 -58,-7 -72,-19 -14,-13 -21,-29 -21,-49 0,-21 7,-37 21,-50 14,-12 38,-19 72,-19l314 0c92,0 166,26 220,76 54,50 81,112 81,184 0,40 -9,78 -28,114 -13,26 -36,53 -68,78 -33,27 -65,46 -99,59 -34,13 -78,20 -133,20l-129 0zm0 -136l126 0c60,0 107,-14 142,-41 35,-27 52,-59 52,-97 0,-32 -14,-60 -42,-84 -28,-24 -69,-36 -121,-36l-157 0 0 258z"/>
  <path id="23" class="fil1" d="M8072 12735l-330 0 -34 83 33 0c34,0 58,7 72,19 14,13 21,29 21,50 0,20 -7,36 -21,49 -14,12 -38,19 -72,19l-180 0c-33,0 -57,-7 -71,-19 -14,-13 -21,-30 -21,-50 0,-21 7,-37 21,-49 14,-12 38,-19 71,-19l216 -534 -89 0c-34,0 -57,-7 -72,-19 -13,-13 -20,-29 -20,-49 0,-21 7,-37 20,-50 15,-12 38,-19 72,-19l293 0 272 671c34,0 55,5 65,13 18,17 28,35 28,56 0,20 -7,36 -21,49 -14,12 -38,19 -72,19l-180 0c-34,0 -58,-7 -72,-19 -14,-13 -21,-30 -21,-50 0,-21 7,-37 21,-49 14,-12 38,-19 72,-19l33 0 -34 -83zm-55 -136l-110 -271 -110 271 220 0z"/>
  <path id="24" class="fil1" d="M9316 12418l0 310c0,68 -24,125 -73,172 -48,48 -106,71 -175,71 -33,0 -65,-6 -95,-18 -29,-12 -56,-29 -80,-52 -23,-23 -42,-47 -55,-73 -13,-25 -20,-58 -20,-100l0 -310c-27,0 -46,-5 -57,-15 -11,-11 -17,-24 -17,-40 0,-17 6,-30 17,-39 11,-10 30,-15 57,-15l149 0c23,0 41,5 52,15 11,10 17,23 17,39 0,17 -6,30 -17,40 -11,10 -29,15 -52,15l-39 0 0 320c0,32 13,61 40,86 28,26 60,38 99,38 25,0 49,-6 72,-18 22,-12 40,-30 55,-53 9,-15 13,-32 13,-53l0 -320 -39 0c-24,0 -41,-5 -52,-15 -11,-10 -17,-23 -17,-40 0,-16 6,-29 17,-39 11,-10 28,-15 52,-15l148 0c27,0 46,5 58,15 11,9 16,22 16,39 0,16 -5,29 -16,40 -12,10 -31,15 -58,15z"/>
  <path id="25" class="fil1" d="M9584 12515l0 331 39 0c27,0 46,5 57,15 11,10 17,23 17,39 0,17 -6,30 -17,40 -11,10 -30,15 -57,15l-149 0c-27,0 -46,-5 -57,-15 -11,-11 -17,-24 -17,-40 0,-17 6,-30 17,-40 11,-9 30,-14 57,-14l0 -428 -17 0c-27,0 -46,-5 -57,-15 -12,-10 -17,-23 -17,-40 0,-16 5,-29 17,-39 11,-10 30,-15 57,-15l126 0 281 438 0 -329 -39 0c-27,0 -46,-5 -58,-15 -11,-10 -16,-23 -16,-40 0,-16 5,-29 16,-39 12,-10 31,-15 58,-15l148 0c27,0 46,5 58,15 11,9 16,22 16,39 0,16 -5,29 -16,40 -12,10 -31,15 -58,15l0 537 -107 0 -282 -440z"/>
  <path id="26" class="fil1" d="M4750 13759l0 172 50 0c33,0 57,6 71,19 14,12 21,29 21,49 0,21 -7,37 -21,50 -14,12 -38,18 -71,18l-208 0c-34,0 -57,-6 -72,-19 -13,-12 -20,-29 -20,-49 0,-21 7,-37 20,-50 15,-12 38,-18 72,-18l22 0 0 -535 -22 0c-34,0 -57,-6 -72,-19 -13,-12 -20,-28 -20,-49 0,-20 7,-37 20,-49 15,-13 38,-19 72,-19l309 0c96,0 171,24 224,71 53,48 80,106 80,175 0,43 -13,81 -38,116 -25,35 -63,66 -113,93 28,25 59,58 92,98 20,25 48,64 82,118 34,0 56,4 66,13 18,16 27,35 27,55 0,21 -7,37 -21,50 -14,12 -38,18 -72,18l-70 0c-109,-171 -201,-273 -273,-308l-135 0zm0 -136l107 0c39,0 75,-6 106,-18 41,-16 69,-33 84,-51 14,-18 21,-35 21,-53 0,-26 -13,-50 -41,-72 -27,-22 -68,-33 -120,-33l-157 0 0 227z"/>
  <path id="27" class="fil1" d="M5515 13798l0 160 279 0 0 -59c0,-27 5,-46 15,-57 10,-11 23,-17 40,-17 16,0 29,6 39,17 10,11 15,30 15,57l0 168 -514 0c-27,0 -46,-5 -58,-15 -11,-10 -16,-23 -16,-40 0,-16 5,-29 16,-39 12,-10 31,-15 58,-15l17 0 0 -427 -17 0c-27,0 -46,-6 -58,-16 -11,-10 -16,-23 -16,-39 0,-16 5,-30 16,-40 12,-10 31,-15 58,-15l491 1 0 165c0,27 -5,46 -15,58 -10,11 -23,16 -39,16 -16,0 -30,-5 -40,-16 -10,-12 -15,-31 -15,-58l0 -56 -256 0 0 158 96 0c0,-27 4,-44 10,-52 14,-15 29,-22 46,-22 16,0 29,5 39,16 10,12 15,31 15,58l0 109c0,27 -4,44 -10,52 -13,15 -28,22 -44,22 -17,0 -32,-8 -46,-23 -6,-7 -10,-24 -10,-51l-96 0z"/>
  <path id="28" class="fil1" d="M6207 13799l0 159 113 0c27,0 46,5 57,15 11,10 17,23 17,40 0,16 -6,29 -17,39 -11,10 -30,15 -57,15l-239 0c-27,0 -46,-5 -58,-15 -11,-10 -16,-23 -16,-40 0,-16 5,-29 16,-39 12,-10 31,-15 58,-15l17 0 0 -427 -17 0c-27,0 -46,-6 -58,-16 -11,-10 -16,-23 -16,-39 0,-16 5,-30 16,-40 12,-10 31,-15 58,-15l515 1 0 166c0,27 -5,47 -15,58 -10,11 -23,17 -40,17 -16,0 -29,-6 -39,-17 -10,-11 -15,-31 -15,-58l0 -57 -280 0 0 159 98 0c0,-27 3,-44 10,-51 13,-16 28,-23 45,-23 16,0 29,5 39,16 10,12 15,31 15,58l0 109c0,27 -5,46 -15,57 -10,12 -24,17 -40,17 -16,0 -31,-7 -45,-23 -6,-7 -9,-24 -9,-51l-98 0z"/>
  <path id="29" class="fil1" d="M6892 13531l0 427 236 0 0 -103c0,-27 5,-47 15,-58 10,-11 23,-17 40,-17 16,0 29,6 39,17 10,11 15,31 15,58l0 212 -518 0c-27,0 -46,-5 -57,-15 -11,-10 -17,-23 -17,-40 0,-16 6,-29 17,-39 11,-10 30,-15 57,-15l64 0 0 -427 -64 0c-27,0 -46,-6 -57,-16 -11,-10 -17,-23 -17,-39 0,-16 6,-30 17,-40 11,-10 30,-15 57,-15l237 0c27,0 46,5 58,15 11,10 16,23 16,39 0,17 -5,30 -16,40 -12,10 -31,16 -58,16l-64 0z"/>
  <path id="30" class="fil1" d="M7480 13798l0 160 278 0 0 -59c0,-27 6,-46 16,-57 10,-11 23,-17 40,-17 16,0 29,6 39,17 10,11 15,30 15,57l0 168 -514 0c-27,0 -47,-5 -58,-15 -11,-10 -17,-23 -17,-40 0,-16 6,-29 17,-39 11,-10 31,-15 58,-15l17 0 0 -427 -17 0c-27,0 -47,-6 -58,-16 -11,-10 -17,-23 -17,-39 0,-16 6,-30 17,-40 11,-10 31,-15 58,-15l491 1 0 165c0,27 -5,46 -15,58 -10,11 -23,16 -39,16 -17,0 -30,-5 -40,-16 -10,-12 -15,-31 -15,-58l0 -56 -256 0 0 158 96 0c0,-27 4,-44 10,-52 14,-15 29,-22 45,-22 17,0 30,5 40,16 9,12 14,31 14,58l0 109c0,27 -3,44 -9,52 -14,15 -28,22 -45,22 -16,0 -31,-8 -45,-23 -6,-7 -10,-24 -10,-51l-96 0z"/>
  <path id="31" class="fil1" d="M8134 13837l0 121 39 0c24,0 41,5 52,15 11,10 17,23 17,40 0,16 -6,29 -17,39 -11,10 -28,15 -52,15l-166 0c-23,0 -40,-5 -52,-15 -11,-10 -16,-23 -16,-40 0,-16 5,-29 16,-39 12,-10 29,-15 52,-15l18 0 0 -427 -18 0c-23,0 -40,-6 -52,-16 -11,-10 -16,-23 -16,-39 0,-16 5,-30 16,-40 12,-10 29,-15 52,-15l166 0c24,0 41,5 52,15 11,10 17,23 17,39 0,17 -6,30 -17,40 -11,10 -28,16 -52,16l-39 0 0 162 194 -167c2,0 -2,-4 -14,-12 -11,-8 -16,-21 -16,-37 0,-16 5,-30 16,-40 12,-10 16,-16 14,-16l159 0c28,0 47,5 58,15 11,10 17,23 17,39 0,17 -6,30 -17,40 -11,10 -30,16 -58,16l-197 171c36,21 71,53 103,96 32,43 61,96 86,160l29 0c27,0 47,5 58,15 11,10 17,23 17,40 0,16 -6,29 -17,39 -11,10 -31,15 -58,15l-99 0c-23,-54 -48,-106 -75,-156 -22,-40 -42,-69 -62,-88 -20,-18 -44,-33 -71,-44l-67 58z"/>
  <path id="32" class="fil1" d="M8956 13531l0 427 73 0c27,0 46,5 58,15 11,10 16,23 16,40 0,16 -5,29 -16,39 -12,10 -31,15 -58,15l-255 0c-27,0 -47,-5 -58,-15 -11,-10 -17,-23 -17,-40 0,-16 6,-29 17,-39 11,-10 31,-15 58,-15l73 0 0 -427 -119 0 0 103c0,27 -5,46 -15,58 -10,11 -23,16 -40,16 -16,0 -29,-5 -39,-16 -10,-12 -15,-31 -15,-58l0 -213 566 0 0 213c0,27 -5,46 -15,58 -10,11 -23,16 -39,16 -17,0 -30,-5 -40,-16 -10,-12 -15,-31 -15,-58l0 -103 -120 0z"/>
  <path id="33" class="fil1" d="M9864 13745c0,97 -31,177 -93,242 -61,65 -133,97 -214,97 -73,0 -139,-27 -197,-81 -73,-66 -109,-152 -109,-258 0,-106 36,-193 109,-259 58,-54 124,-81 197,-81 81,0 153,32 214,97 62,64 93,145 93,243zm-109 0c0,-67 -20,-122 -60,-166 -41,-43 -87,-65 -138,-65 -51,0 -96,22 -137,66 -40,43 -60,99 -60,165 0,66 20,121 60,164 41,44 86,66 137,66 51,0 97,-22 138,-65 40,-44 60,-99 60,-165z"/>
  <path id="34" class="fil1" d="M10100 13821l0 137 39 0c27,0 46,5 58,15 11,10 16,23 16,40 0,16 -5,29 -16,39 -12,10 -31,15 -58,15l-166 0c-27,0 -46,-5 -57,-15 -11,-10 -17,-23 -17,-40 0,-16 6,-29 17,-39 11,-10 30,-15 57,-15l18 0 0 -427 -18 0c-27,0 -46,-6 -57,-16 -11,-10 -17,-23 -17,-39 0,-16 6,-30 17,-40 11,-10 30,-15 57,-15l248 0c76,0 136,19 179,58 42,38 63,84 63,139 0,34 -10,65 -30,93 -20,28 -50,53 -90,75 22,20 47,46 73,78 16,20 38,51 66,94 27,0 44,4 52,10 15,14 22,28 22,45 0,16 -6,29 -17,39 -11,10 -30,15 -57,15l-56 0c-88,-136 -161,-219 -219,-246l-107 0zm0 -109l85 0c32,0 60,-5 85,-15 33,-13 55,-26 67,-40 11,-15 17,-29 17,-43 0,-20 -11,-39 -33,-57 -22,-18 -54,-26 -96,-26l-125 0 0 181z"/>
  <path id="35" class="fil1" d="M11000 13892l-264 0 -27 66 26 0c27,0 46,5 58,15 11,10 16,23 16,40 0,16 -5,29 -16,39 -12,10 -31,15 -58,15l-144 0c-27,0 -46,-5 -57,-15 -11,-10 -17,-23 -17,-40 0,-16 6,-29 17,-39 11,-10 30,-15 57,-15l173 -427 -71 0c-27,0 -47,-6 -58,-16 -11,-10 -17,-23 -17,-39 0,-16 6,-30 17,-40 11,-10 31,-15 58,-15l234 0 217 537c28,0 45,4 52,10 15,14 23,28 23,45 0,16 -6,29 -17,39 -11,10 -30,15 -58,15l-143 0c-28,0 -47,-5 -58,-15 -11,-10 -17,-23 -17,-40 0,-16 6,-29 17,-39 11,-10 30,-15 58,-15l26 0 -27 -66zm-44 -109l-88 -217 -88 217 176 0zm39 -431l-253 0c-16,0 -28,-4 -35,-10 -7,-7 -11,-15 -11,-25 0,-11 4,-19 11,-25 7,-7 19,-10 35,-10l253 0c16,0 28,3 35,10 7,6 11,14 11,25 0,10 -4,18 -11,25 -7,6 -19,10 -35,10z"/>
  <path id="36" class="fil1" d="M11363 14040c-10,12 -17,19 -23,22 -6,4 -14,5 -22,5 -17,0 -30,-5 -40,-16 -10,-12 -16,-30 -16,-56l0 -74c0,-26 6,-45 16,-56 10,-11 23,-17 40,-17 13,0 24,4 32,10 9,7 16,18 20,34 5,16 10,26 15,32 10,11 28,22 54,34 27,11 55,17 87,17 48,0 88,-12 119,-35 20,-13 30,-30 30,-51 0,-13 -5,-26 -14,-38 -10,-12 -25,-22 -47,-29 -14,-6 -46,-13 -95,-22 -59,-11 -104,-25 -134,-40 -31,-16 -55,-38 -73,-67 -18,-28 -27,-59 -27,-92 0,-52 22,-98 66,-137 43,-39 100,-59 169,-59 28,0 54,3 78,9 24,7 45,16 65,29 14,-14 29,-21 43,-21 16,0 30,6 40,17 10,11 15,30 15,56l0 82c0,27 -5,46 -15,57 -10,11 -23,17 -39,17 -14,0 -25,-5 -36,-13 -7,-6 -13,-18 -17,-36 -4,-19 -9,-32 -15,-39 -10,-14 -26,-26 -46,-35 -21,-9 -44,-14 -71,-14 -39,0 -71,9 -93,28 -23,18 -34,37 -34,57 0,14 4,27 14,39 9,13 23,23 41,30 12,5 45,13 101,24 55,11 98,23 128,36 30,13 55,34 75,62 20,28 30,62 30,100 0,54 -19,97 -57,130 -50,42 -115,64 -193,64 -30,0 -59,-4 -88,-11 -28,-7 -56,-18 -83,-33z"/>
  <path id="37" class="fil1" d="M6123 14636l0 408 49 0c34,0 58,6 72,18 14,13 21,29 21,50 0,20 -7,37 -21,49 -14,13 -38,19 -72,19l-185 0c-34,0 -58,-6 -72,-19 -14,-13 -21,-29 -21,-50 0,-20 7,-37 21,-49 14,-12 38,-18 72,-18l0 -535c-34,0 -58,-6 -72,-19 -14,-13 -21,-29 -21,-49 0,-21 7,-37 21,-50 14,-12 38,-19 72,-19l168 0 187 411 184 -411 169 0c34,0 57,7 71,19 14,12 21,29 21,49 0,20 -7,37 -21,50 -14,13 -37,19 -71,19l0 535c34,0 57,6 71,18 14,13 21,29 21,50 0,20 -7,37 -21,49 -14,13 -37,19 -71,19l-187 0c-34,0 -58,-6 -72,-19 -14,-13 -21,-29 -21,-50 0,-20 7,-37 21,-49 14,-12 38,-18 72,-18l50 0 0 -408 -157 352 -118 0 -160 -352z"/>
  <path id="38" class="fil1" d="M7207 15004l-265 0 -27 67 27 0c27,0 46,5 58,15 11,10 16,23 16,39 0,17 -5,30 -16,40 -12,10 -31,15 -58,15l-144 0c-27,0 -46,-5 -57,-15 -12,-10 -17,-24 -17,-40 0,-16 5,-30 17,-39 11,-10 30,-15 57,-15l172 -428 -71 0c-27,0 -46,-5 -57,-15 -11,-10 -17,-23 -17,-39 0,-17 6,-30 17,-40 11,-10 30,-15 57,-15l235 0 217 537c27,0 45,3 52,10 15,13 22,28 22,44 0,17 -5,30 -16,40 -12,10 -31,15 -58,15l-144 0c-27,0 -46,-5 -57,-15 -11,-10 -17,-24 -17,-40 0,-16 6,-30 17,-39 11,-10 30,-15 57,-15l27 0 -27 -67zm-45 -109l-87 -217 -88 217 175 0z"/>
  <path id="39" class="fil1" d="M7570 15153c-10,11 -18,19 -24,22 -5,3 -13,5 -21,5 -17,0 -30,-6 -40,-17 -11,-11 -16,-30 -16,-56l0 -73c0,-27 5,-45 16,-57 10,-11 23,-16 40,-16 13,0 23,3 32,10 9,7 15,18 20,33 5,16 10,27 15,33 10,11 28,22 54,33 26,12 55,17 86,17 49,0 89,-11 120,-34 20,-14 30,-31 30,-51 0,-14 -5,-26 -15,-38 -9,-12 -25,-22 -46,-30 -14,-5 -46,-12 -95,-22 -59,-11 -104,-24 -134,-40 -31,-15 -55,-37 -73,-66 -18,-28 -27,-59 -27,-92 0,-52 22,-98 66,-137 43,-40 100,-59 169,-59 28,0 54,3 78,9 24,6 45,16 65,29 14,-14 29,-21 43,-21 16,0 29,6 40,17 10,11 15,30 15,56l0 82c0,26 -5,45 -15,56 -10,11 -23,17 -39,17 -14,0 -26,-4 -36,-12 -7,-6 -13,-18 -17,-37 -4,-18 -9,-31 -15,-39 -10,-14 -26,-25 -46,-34 -21,-10 -45,-14 -71,-14 -40,0 -71,9 -93,27 -23,19 -35,38 -35,57 0,14 5,27 14,40 10,12 23,22 41,29 12,5 46,13 102,24 55,12 98,24 128,37 30,13 55,33 75,62 20,28 30,61 30,100 0,54 -19,97 -57,129 -50,43 -115,64 -193,64 -30,0 -59,-3 -88,-11 -29,-7 -56,-18 -83,-32z"/>
  <path id="40" class="fil1" d="M8517 15004l-265 0 -27 67 27 0c27,0 46,5 57,15 11,10 17,23 17,39 0,17 -6,30 -17,40 -11,10 -30,15 -57,15l-144 0c-27,0 -46,-5 -58,-15 -11,-10 -16,-24 -16,-40 0,-16 5,-30 16,-39 12,-10 31,-15 58,-15l172 -428 -71 0c-27,0 -46,-5 -57,-15 -11,-10 -17,-23 -17,-39 0,-17 6,-30 17,-40 11,-10 30,-15 57,-15l235 0 217 537c27,0 44,3 52,10 15,13 22,28 22,44 0,17 -5,30 -16,40 -12,10 -31,15 -58,15l-144 0c-27,0 -46,-5 -57,-15 -11,-10 -17,-24 -17,-40 0,-16 6,-30 17,-39 11,-10 30,-15 57,-15l26 0 -26 -67zm-45 -109l-88 -217 -87 217 175 0zm40 -431l-254 0c-16,0 -27,-3 -34,-10 -8,-6 -11,-15 -11,-25 0,-10 3,-18 11,-25 7,-6 18,-10 34,-10l254 0c16,0 28,4 35,10 7,7 10,15 10,25 0,10 -3,19 -10,25 -8,7 -19,10 -35,10z"/>
  <path id="41" class="fil1" d="M8930 15071l250 0 0 -81c0,-27 5,-46 15,-57 10,-11 23,-17 39,-17 17,0 30,6 40,17 10,11 15,30 15,57l0 190 -497 0 0 -109 334 -428 -202 0 0 79c0,27 -5,46 -14,57 -10,11 -23,17 -40,17 -16,0 -29,-6 -40,-17 -10,-11 -15,-30 -15,-57l0 -188 451 0 0 107 -336 430zm109 -695l109 -73c12,-8 21,-12 28,-12 10,0 19,3 26,11 7,7 10,16 10,26 0,12 -8,24 -23,35l-150 101 -149 -101c-16,-11 -25,-22 -25,-35 0,-10 4,-19 11,-26 8,-8 16,-11 26,-11 7,0 17,4 29,12l108 73z"/>
  <path id="42" class="fil1" d="M9826 15004l-264 0 -27 67 26 0c28,0 47,5 58,15 11,10 17,23 17,39 0,17 -6,30 -17,40 -11,10 -30,15 -58,15l-143 0c-27,0 -46,-5 -58,-15 -11,-10 -16,-24 -16,-40 0,-16 5,-30 16,-39 12,-10 31,-15 58,-15l172 -428 -71 0c-27,0 -46,-5 -57,-15 -11,-10 -17,-23 -17,-39 0,-17 6,-30 17,-40 11,-10 30,-15 57,-15l234 0 218 537c27,0 44,3 52,10 15,13 22,28 22,44 0,17 -5,30 -17,40 -11,10 -30,15 -57,15l-144 0c-27,0 -46,-5 -58,-15 -11,-10 -16,-24 -16,-40 0,-16 5,-30 16,-39 12,-10 31,-15 58,-15l26 0 -27 -67zm-44 -109l-88 -217 -88 217 176 0z"/>
  <path id="43" class="fil1" d="M10189 15153c-9,11 -17,19 -23,22 -6,3 -13,5 -22,5 -16,0 -30,-6 -40,-17 -10,-11 -15,-30 -15,-56l0 -73c0,-27 5,-45 15,-57 10,-11 24,-16 40,-16 13,0 24,3 33,10 9,7 15,18 20,33 4,16 9,27 14,33 11,11 29,22 55,33 26,12 55,17 86,17 49,0 89,-11 120,-34 20,-14 30,-31 30,-51 0,-14 -5,-26 -15,-38 -9,-12 -25,-22 -46,-30 -14,-5 -46,-12 -95,-22 -59,-11 -104,-24 -135,-40 -31,-15 -55,-37 -72,-66 -18,-28 -27,-59 -27,-92 0,-52 22,-98 65,-137 44,-40 100,-59 170,-59 28,0 54,3 78,9 23,6 45,16 65,29 14,-14 28,-21 43,-21 16,0 29,6 39,17 11,11 16,30 16,56l0 82c0,26 -5,45 -16,56 -10,11 -23,17 -39,17 -13,0 -25,-4 -35,-12 -8,-6 -14,-18 -18,-37 -3,-18 -9,-31 -15,-39 -10,-14 -25,-25 -46,-34 -20,-10 -44,-14 -71,-14 -39,0 -70,9 -93,27 -22,19 -34,38 -34,57 0,14 5,27 14,40 10,12 23,22 41,29 12,5 46,13 101,24 56,12 99,24 129,37 30,13 55,33 75,62 20,28 30,61 30,100 0,54 -19,97 -57,129 -51,43 -115,64 -193,64 -30,0 -60,-3 -88,-11 -29,-7 -57,-18 -84,-32z"/>
  <path class="fil1" d="M8170 16341c-2256,0 -4298,-915 -5777,-2393 -1478,-1479 -2393,-3522 -2393,-5778 0,-2256 915,-4298 2393,-5777 1479,-1478 3521,-2393 5777,-2393 2256,0 4299,915 5778,2393 1478,1479 2393,3521 2393,5777 0,2256 -915,4299 -2393,5778 -1479,1478 -3522,2393 -5778,2393zm-5569 -2602c1426,1426 3394,2307 5569,2307 2175,0 4144,-881 5569,-2307 1426,-1425 2307,-3394 2307,-5569 0,-2175 -881,-4143 -2307,-5569 -1425,-1425 -3394,-2306 -5569,-2306 -2175,0 -4143,881 -5569,2306 -1425,1426 -2306,3394 -2306,5569 0,2175 881,4144 2306,5569z"/>
 </g>
</svg>
