<?xml version="1.0" encoding="UTF-8"?>
<!DOCTYPE svg PUBLIC "-//W3C//DTD SVG 1.1//EN" "http://www.w3.org/Graphics/SVG/1.1/DTD/svg11.dtd">
<!-- Creator: CorelDRAW X8 -->
<svg xmlns="http://www.w3.org/2000/svg" xml:space="preserve" version="1.1" style="shape-rendering:geometricPrecision; text-rendering:geometricPrecision; image-rendering:optimizeQuality; fill-rule:evenodd; clip-rule:evenodd"
viewBox="0 0 20142 16341"
 xmlns:xlink="http://www.w3.org/1999/xlink">
 <defs>
  <style type="text/css">
   <![CDATA[
    .fil0 {fill:#FEFEFE}
   ]]>
  </style>
 </defs>
 <g id="Outline">
  <metadata id="CorelCorpID_0Corel-Layer"/>
  <path class="fil0" d="M11215 15920c-564,675 -377,534 -1552,-399 -626,-497 -1054,-747 -1712,-1181 -317,-285 -317,-285 -909,-945 -254,-8 -818,61 -1384,61 -1359,-147 -2629,-381 -3914,-846 -257,0 -1725,147 -1748,-124 577,-999 1582,-1738 2629,-2205 79,-15 1112,-160 1270,-318 -676,-416 -1265,-944 -1905,-1409 -1831,-1722 -1527,-3597 -1499,-5979 -147,-922 -584,-1324 336,-1324 1110,643 2260,1189 3192,2081 757,-884 353,-1560 404,-2594 94,5 188,10 282,18 1291,704 2517,1382 3511,2489 939,-848 1254,-1981 1465,-3246 193,10 353,18 500,165 463,1191 1189,2494 2022,3467 437,-769 2406,-3734 3305,-3007 2,869 -13,1694 134,2550 176,-53 176,-53 282,-124 752,-1001 2045,-2454 3386,-1905 -754,754 -299,2141 -122,3017 33,668 69,1339 104,2009 -668,1379 -1272,2103 -2451,3053 -45,64 -91,127 -139,193 1232,414 3439,780 3439,2505 -318,460 -1585,416 -2169,513 -1552,411 -2774,970 -4341,404 -546,1094 -546,1094 -828,1587 -292,290 -623,697 -1095,1024 -202,140 18,-143 -493,470zm3368 -3399c-256,-94 -515,-188 -774,-282 -193,-559 -620,-998 -813,-1516 1303,-353 2497,-813 3845,-653 892,216 2002,650 2566,1402 -43,26 -87,51 -130,79 -1557,389 -3099,805 -4694,970zm-3985 2822c-1239,-696 -4277,-2210 -2405,-4005 332,0 741,198 1066,282 953,71 953,71 1651,71 1354,-427 2101,-1019 2101,729 -315,1122 -1214,2565 -2413,2923zm-5151 -2433c-1471,-221 -2880,-567 -4331,-874 1605,-1887 3711,-1534 5847,-1084 224,22 447,45 671,71 -577,528 -722,896 -909,1648 -458,135 -806,221 -1278,239zm9350 -3457c45,-76 91,-155 137,-234 1648,-1704 1732,-2494 1112,-4808 0,-1138 1321,-2304 2347,-2685 46,2794 955,4646 -1432,6612 -722,371 -1443,742 -2164,1115zm-1448 389c-38,-475 132,-930 261,-1382 135,-1600 -76,-2185 -810,-3660 -127,-529 -2,-900 216,-1395 434,-635 1212,-1656 1920,-1996 44,815 130,1602 333,2395 597,1636 986,2888 -53,4293 -584,599 -1194,1252 -1867,1745zm-3246 1305c-2921,-439 -3201,-2878 -2241,-5397 729,-1507 1377,-3074 2154,-4552 981,1719 2037,3398 2962,5151 188,574 208,978 178,1588 -422,2202 -714,3009 -3053,3210zm-3208 -1305c-2992,-1837 -2589,-3838 -1786,-6955 71,-635 71,-635 92,-1229 835,297 2661,1323 2661,2400 -406,1516 -1130,2616 -1130,4262 41,241 351,1443 163,1522zm-1237 104c-252,-125 -252,-125 -1098,-407 -924,-561 -2009,-1176 -2766,-1953 -932,-1737 -627,-3559 -619,-5494 1072,503 2065,1234 2842,2134 -292,1320 -434,2585 251,3779 874,1186 1024,1445 1408,1931 -6,2 -11,5 -18,10z"/>
 </g>
</svg>
