<svg version="1.0" xmlns="http://www.w3.org/2000/svg" viewBox="0 0 700 700"><path d="M323.9 69.9C313.5 74 306.1 83 301.3 97.4c-2.4 7.3-2.6 9.7-2.7 23.6-.1 13.3.2 16.6 2.2 23.3 2.8 9.9 4.9 14 10.2 20 7.6 8.6 18.2 12.3 29.9 10.5 16.7-2.6 26.9-12.8 32.6-32.8 2.9-10 2.7-31.7-.4-42.7-4.2-15-12.2-25.3-22.9-29.3-6.9-2.6-19.8-2.7-26.3-.1zM242.1 97.1c-7.4 2.2-15 8.9-19.2 17-6.6 13-6.4 40.7.4 56.1 2.9 6.6 9.6 14.2 14.7 16.8 4.7 2.3 19.6 2.6 26.1.5 9.5-3.2 16.5-11.1 20.2-23 2.8-9.2 3-27.8.3-37.4-5.4-19.8-18.1-31.3-34-31-2.8 0-6.6.5-8.5 1zM412 96.9c-12.7 4.1-21.1 14.8-24.6 30.9-1.6 8-1.8 26.1-.3 33.3 2.6 12.3 8.6 21.1 17.3 25.7 4.3 2.2 6.2 2.6 12.6 2.5 24-.5 37-18.1 37-50 0-17.1-2.8-25.9-10.9-34.6-5.7-6.1-10.3-8-20.1-8.4-4.7-.1-9.6.1-11 .6zM321.5 186.9c-14.4 2.3-22.6 6.1-31.1 14.3-13.2 12.6-18.1 31.8-15.4 59.8 1.2 13.5 4.1 27.8 11.4 56.8 7.2 28.6 10.8 51.7 19.2 122.7 4 34.4 5.8 41.6 11.6 47.2 5 4.8 11 6.8 20.3 6.7 9.3-.1 15.6-2.4 19.7-7.3 5.2-6.1 6.7-12.6 10.8-47.5 8.8-73.2 12.2-94.2 20.9-129.1 7.8-31.3 9.2-40 9.8-58.5.4-12.8.1-18.2-1.1-23.9-4.3-20.5-16.3-33.4-36.4-39.2-7.5-2.2-31.1-3.4-39.7-2z"/><path d="M237.5 198c-21.2 4.5-32.5 16.8-35.6 38.9-2.3 16.4 1.1 36.5 13.6 80.6 5.1 17.8 10.5 45.8 16 82 7.8 51.8 8.8 55.9 15.1 61.5 8.5 7.5 26.8 6.9 34.1-1.1 3.8-4.1 5.3-9.4 6.8-23.6 3-29.6 3-31.3-.4-49.3-1.6-9.1-4.2-23.7-5.6-32.5-1.4-8.8-4.1-22.3-5.9-30-1.9-7.7-3.8-16.7-4.4-20-.6-3.3-2.3-11.4-3.7-18-3.4-15.9-4.9-33.2-4.2-48.5.6-14.3 2.3-21.6 7.2-31.5 2.2-4.6 3.1-7.3 2.4-8-1.3-1.3-30-1.7-35.4-.5zM403.5 197.7c-1.6.3-3.3.8-3.8 1.2-.4.4.7 3.8 2.4 7.6 5 11 6.9 21.7 6.9 39.3 0 19.7-3.2 39.8-10.8 67.2-3.9 13.8-6.6 25.9-9.1 40-6.8 38.6-7.6 49-5.6 74.7 2.2 28.3 4.1 33.9 12.8 38.6 6 3.1 19.4 3.1 25.3 0 8.9-4.7 11-9.6 15-34.8 12.8-80.4 15.3-93.8 22.8-120.1 12.8-45.4 14.8-67.5 7.6-86.7-2.9-7.7-10.4-15.8-18.3-19.7-6.4-3.1-18.8-6-25.8-6-2.1 0-3.9-.5-3.9-1 0-1-9.4-1.1-15.5-.3zM501 225c0 .6 2.8 1 6.5 1s6.5-.4 6.5-1-2.8-1-6.5-1-6.5.4-6.5 1z"/><path d="M519 224.7c0 .6 4.6 1.3 10.3 1.6 26.7 1.7 60.4 12.8 81.4 26.7 8.5 5.6 20.5 17 25.9 24.6 15.7 21.9 18.7 48.8 8.8 78.7-17.9 54.2-84.5 117-165.9 156.7-65.8 32-153.4 54.7-224.4 58.1-60.2 2.8-106.4-6.4-138.3-27.8-13.3-8.9-27.1-25.8-32.6-39.9-16.9-43 8.9-101.4 67.3-152.3 15.7-13.7 38.5-30.4 48.5-35.6 2-1.1 3-2 2.2-2.3-3.4-1.1-56.5 24.9-81 39.7C52.7 394.1 13.4 437.8 1.9 485.5c-3 12.7-2.7 37.6.6 51.5 6.1 25.2 20.1 44.3 44.3 60.4 25.6 17 57 27.1 102.3 32.7 22.9 2.9 71.1 3.2 97.9.6 32.7-3.2 45.4-5.2 80.5-12.9 61.5-13.4 133.6-39 186.1-66.2 52.7-27.4 90.5-54.3 122.4-87.2 34.2-35.3 55.9-72.7 62.5-107.9 2.4-12.5 1.6-34.9-1.5-45.5-5.1-17.1-13.1-29.9-27-43.4-22.5-21.7-52.8-34.7-96-41.2-12.5-1.8-55-3.2-55-1.7z"/></svg>