<svg viewBox="0 -8 464 464" xmlns="http://www.w3.org/2000/svg">
  <path d="M3.59 447.477a7.41 7.41 0 003.754 1.02c1.136 0 2.258-.27 3.273-.786l147.684-76.371 142.789 76.328a7.015 7.015 0 006.5.055l152.375-78.063a7.218 7.218 0 004.035-6.226V6.988a7.304 7.304 0 00-3.578-5.972 7.304 7.304 0 00-6.961-.254L304.504 77.16 161.668 2.008a7.026 7.026 0 00-6.45-.043L4.059 78.813A7.225 7.225 0 000 85.05v356.445a7.22 7.22 0 003.59 5.98zM297 429.453l-132-70.27V19.744l132 69.171zm153-70.293l-139 71.223V89.672l139-71.223zM14 89.34l137-69.664v339.55L14 429.993zm0 0"/>
  <path d="M338.953 161.14c1.11 0 2.203-.265 3.192-.773l84.933-43.578a6.997 6.997 0 00.64-12.148 7 7 0 00-7.03-.309l-84.934 43.582a6.995 6.995 0 00-3.61 7.875 6.996 6.996 0 006.81 5.352zm0 0M338.953 210.488a6.987 6.987 0 003.192-.777l84.933-43.578a6.997 6.997 0 00.64-12.149 7 7 0 00-7.03-.308l-84.934 43.582a6.997 6.997 0 00-3.613 7.875 7.003 7.003 0 006.812 5.355zm0 0M420.688 203.027l-84.934 43.578a6.988 6.988 0 00-3.82 5.883 6.994 6.994 0 003.203 6.242 6.996 6.996 0 007.008.333l84.933-43.583a6.992 6.992 0 003.852-5.886c.132-2.512-1.094-4.903-3.211-6.262s-4.801-1.477-7.031-.305zm0 0M121.254 223.75l-84.938 43.582a7.004 7.004 0 00-3.82 5.883 7.009 7.009 0 003.203 6.246 7.013 7.013 0 007.012.328l84.934-43.582a6.996 6.996 0 00.617-12.125 6.996 6.996 0 00-7.008-.332zm0 0M121.254 273.102L36.316 316.68a7.005 7.005 0 00-3.82 5.886 7.007 7.007 0 003.203 6.243 7.013 7.013 0 007.012.328l84.934-43.582a6.99 6.99 0 003.82-5.883 6.994 6.994 0 00-3.203-6.242 6.987 6.987 0 00-7.008-.328zm0 0M274.54 199.242l-78.56-41.344a7.002 7.002 0 00-6.52 12.391l78.56 41.34a6.998 6.998 0 106.52-12.387zm0 0M189.46 111.07l78.56 41.34a6.998 6.998 0 0010.308-6.46 6.997 6.997 0 00-3.789-5.927L195.98 98.68a7 7 0 00-6.52 12.39zm0 0M127.875 85.832a6.786 6.786 0 00-6.734-.254l-84.637 43.578A6.737 6.737 0 0033 135.383v59.219a6.78 6.78 0 003.105 5.972 6.575 6.575 0 003.532 1.028 6.79 6.79 0 003.133-.77l84.68-43.582a6.768 6.768 0 003.55-6.227V91.805a6.806 6.806 0 00-3.125-5.973zM117 146.746l-70 36.395v-43.48l70-36.4zm0 0M274.398 268.328l-78.484-41.344a6.671 6.671 0 00-6.7.203A6.843 6.843 0 00186 233.18v69.09a6.87 6.87 0 003.602 6.19l78.484 41.345a6.88 6.88 0 003.226.804 6.464 6.464 0 003.461-1.007 6.854 6.854 0 003.227-5.993v-69.09a6.87 6.87 0 00-3.602-6.19zM264 332.016l-64-33.973v-53.27l64 33.973zm0 0"/>
</svg>
