<svg xmlns="http://www.w3.org/2000/svg" viewBox="0 0 58 58">
  <path d="M32 0a22.43 22.43 0 00-3.015.21A22.385 22.385 0 0026 0c-4.883 0-9.449 1.572-13.33 4.29l-.004.003a26.732 26.732 0 00-5.326 4.97c-.047.043-.082.093-.12.144a29.431 29.431 0 00-3.791 6.122.942.942 0 00-.07.155A31.249 31.249 0 001.6 20.579a1.001 1.001 0 00-.078.311A32.597 32.597 0 00.5 29c0 4.403.871 8.577 2.422 12.319a29.844 29.844 0 003.514 6.256c.037.051.067.105.113.148a27.268 27.268 0 004.738 4.94c.051.057.113.099.176.143C15.59 56.076 20.6 58 26 58c.972 0 1.953-.072 2.985-.21.989.134 1.994.21 3.015.21 14.061 0 25.5-13.009 25.5-29S46.061 0 32 0zM21.433 2.618c-.326.17-.649.347-.968.532-.184.106-.369.21-.55.321A22.68 22.68 0 0019.1 4h-1.925c1.462-.684 2.988-1.223 4.578-1.558-.109.054-.212.12-.32.176zM11.36 46H7.773a27.639 27.639 0 01-2.345-4h3.788c.157.354.318.705.487 1.051.073.149.149.295.224.442.205.402.418.798.639 1.188.082.145.161.292.245.435.178.3.363.592.549.884zM4.968 17h3.827c-.175.437-.341.879-.498 1.327-.043.124-.087.247-.129.371-.144.43-.278.864-.405 1.302H3.857c.318-1.031.69-2.031 1.111-3zM2.5 29c0-.674.036-1.338.078-2h3.987l-.002.048A34.06 34.06 0 006.5 29c0 .335.012.667.022 1H2.539c-.011-.334-.039-.663-.039-1zm4.136 3c.038.421.087.838.141 1.254l.01.093c.074.557.164 1.107.265 1.653H3.108a30.561 30.561 0 01-.448-3h3.976zm.62-10c-.026.118-.048.238-.073.357-.027.131-.055.262-.08.394-.122.628-.23 1.26-.316 1.902l-.01.093c-.011.084-.018.17-.029.254H2.779c.132-1.018.299-2.022.528-3h3.949zm.239 15c.031.122.06.246.092.367l.034.134c.165.609.35 1.208.548 1.8.042.125.086.248.129.371.037.11.074.22.113.328H4.558a29.312 29.312 0 01-.983-3h3.92zm3.317-24.116c-.084.143-.163.29-.245.435-.221.39-.434.786-.639 1.188-.075.147-.151.293-.224.442a1.226 1.226 0 00-.026.051H5.929a27.214 27.214 0 012.596-4h3.503c-.122.175-.245.349-.363.527-.295.443-.58.895-.853 1.357zM13.732 6h2.763c-.248.217-.496.435-.736.661-.202.19-.398.388-.594.586-.197.198-.392.399-.584.604-.185.198-.372.394-.552.598-.16.18-.313.366-.468.551h-3.302a24.189 24.189 0 013.473-3zM9.324 48h3.432c.113.148.225.296.341.442.302.379.612.749.931 1.109.18.204.366.4.552.598.192.205.387.406.584.604.081.081.157.167.239.247h-3.008a24.834 24.834 0 01-3.071-3zm12.429 7.558c-2.293-.483-4.46-1.369-6.469-2.558h2.419c.127.098.258.19.386.286.209.155.417.311.63.46.392.273.791.535 1.196.784.181.111.366.214.55.321.319.185.642.362.968.532.108.055.211.121.32.175zM32 56a20.59 20.59 0 01-2.353-.136l-.398-.056-.147-.021a21.066 21.066 0 01-1.035-.173l-.079-.016a21.844 21.844 0 01-.991-.22c-.046-.011-.091-.025-.137-.036a20.15 20.15 0 01-.912-.254c-.088-.027-.174-.058-.262-.086a20.445 20.445 0 01-.77-.258c-.2-.073-.398-.153-.596-.232-.14-.055-.282-.107-.421-.166-5.378-2.276-9.838-6.75-12.551-12.469-.021-.043-.039-.088-.06-.131a28.39 28.39 0 01-.434-.972c-.051-.12-.098-.243-.147-.364-.104-.255-.206-.51-.303-.769-.059-.158-.115-.318-.171-.477a26.224 26.224 0 01-.597-1.875 35.444 35.444 0 01-.316-1.222 30.803 30.803 0 01-.379-1.859 28.711 28.711 0 01-.105-.674c-.03-.2-.06-.4-.086-.601-.031-.241-.055-.484-.081-.727-.02-.188-.041-.376-.058-.565-.024-.278-.04-.559-.056-.84-.009-.157-.022-.313-.029-.471a32.587 32.587 0 01.003-2.66c.007-.158.02-.314.029-.471.016-.281.032-.561.056-.84.016-.189.038-.377.058-.565.025-.243.05-.486.081-.727.026-.201.056-.401.086-.601.033-.225.067-.45.105-.674.035-.205.074-.408.113-.611a29.24 29.24 0 01.773-3.117c.054-.182.11-.364.169-.544.075-.23.155-.457.235-.684.056-.159.112-.319.171-.477.097-.259.199-.514.303-.769.049-.121.097-.244.147-.364.139-.328.284-.652.434-.972.02-.044.039-.088.06-.131C14.062 10.403 18.522 5.93 23.9 3.654c.139-.058.28-.11.421-.166.198-.079.395-.159.596-.232.254-.092.512-.176.77-.258.087-.028.174-.059.262-.086.301-.092.606-.176.912-.254.046-.012.091-.025.137-.036.328-.081.658-.154.991-.22l.079-.016c.342-.066.687-.124 1.035-.173l.147-.021.398-.056A20.559 20.559 0 0132 2c12.958 0 23.5 12.112 23.5 27S44.958 56 32 56z"/>
  <path d="M39.252 47.754a16.35 16.35 0 01-1.706.757.999.999 0 10.706 1.871c.648-.244 1.293-.53 1.915-.849a1 1 0 10-.915-1.779zM45.021 43.02c-.397.488-.82.96-1.259 1.404a.999.999 0 00.712 1.703.999.999 0 00.712-.297c.482-.489.948-1.009 1.386-1.546a1 1 0 00-1.551-1.264zM32 49.524c-.621 0-1.247-.037-1.857-.11a1 1 0 10-.238 1.987c.69.082 1.396.124 2.096.124h.084c.553 0 .958-.448.958-1s-.49-1.001-1.043-1.001zM47.731 15.277a22.646 22.646 0 00-1.242-1.662 1.002 1.002 0 00-1.408-.137 1.002 1.002 0 00-.137 1.408c.398.484.779.993 1.131 1.513a.998.998 0 001.389.267 1 1 0 00.267-1.389zM49.901 35.783a1.002 1.002 0 00-1.267.628 22.53 22.53 0 01-.683 1.77 1 1 0 101.834.798c.273-.629.523-1.278.743-1.93a.997.997 0 00-.627-1.266zM50.833 27.968c-.553 0-1 .479-1 1.032 0 .618-.023 1.236-.07 1.839a.999.999 0 101.994.154c.051-.654.076-1.325.076-1.994v-.064c0-.551-.447-.967-1-.967zM18.229 15.316c.29 0 .578-.125.775-.367.399-.489.823-.96 1.261-1.401a.999.999 0 10-1.42-1.408c-.482.486-.95 1.006-1.39 1.544a1 1 0 00.774 1.632zM24.329 10.337a.997.997 0 00.453-.109 16.526 16.526 0 011.709-.753 1 1 0 00-.701-1.873c-.646.242-1.291.526-1.916.845a1 1 0 00.455 1.89zM24.818 47.791a16.865 16.865 0 01-1.618-.938 1 1 0 10-1.096 1.673 18.98 18.98 0 001.81 1.048 1 1 0 10.904-1.783zM14.167 29c0-.623.025-1.256.074-1.88a1.001 1.001 0 00-.919-1.076 1.008 1.008 0 00-1.075.918c-.053.676-.08 1.362-.08 2.037v.021c0 .552.447.989 1 .989s1-.457 1-1.009zM14.855 34.668a1 1 0 00-1.941.483c.166.666.363 1.333.585 1.983a1 1 0 101.892-.647 22.727 22.727 0 01-.536-1.819zM15.55 18.465a.994.994 0 00-1.317.514 24.357 24.357 0 00-.748 1.929 1.002 1.002 0 00.947 1.322 1 1 0 00.947-.679c.203-.6.434-1.195.686-1.768a1.001 1.001 0 00-.515-1.318zM17.902 41.567a1 1 0 10-1.657 1.12c.392.579.808 1.139 1.238 1.664a.998.998 0 001.407.139c.428-.351.489-.98.14-1.408-.39-.477-.77-.987-1.128-1.515zM49.135 23.292a1 1 0 101.94-.486 24.587 24.587 0 00-.587-1.982 1.001 1.001 0 00-1.893.65c.205.596.386 1.208.54 1.818zM32 8.476c.606 0 1.219.036 1.818.105a1 1 0 10.232-1.986 17.515 17.515 0 00-2.08-.119l-.013 1v-1a.981.981 0 00-.979 1c.001.553.469 1 1.022 1zM39.146 10.192a16.88 16.88 0 011.62.933 1.003 1.003 0 001.384-.291 1 1 0 00-.292-1.384 18.705 18.705 0 00-1.812-1.044 1 1 0 10-.9 1.786zM41.824 36.173c-.243 0-.477.109-.702.334-1.775 1.858-4.155 2.801-7.074 2.801-2.336 0-4.337-.677-5.948-2.012-1.465-1.215-2.481-2.821-3.024-4.781h7.998c.6 0 .987-.387.987-.986s-.388-.987-.987-.987h-8.361c-.045-.42-.068-.894-.068-1.416 0-.533.024-1.029.071-1.48h9.008c.6 0 .987-.388.987-.987s-.388-.986-.987-.986h-8.647c.537-1.946 1.508-3.551 2.891-4.776 1.511-1.338 3.268-2.017 5.221-2.017 1.973 0 3.826.603 5.503 1.788.69.5 1.308 1.05 1.837 1.636v2.083c0 .6.388.987.988.987.599 0 .986-.388.986-.987v-6.169c0-.6-.387-.987-.986-.987-.601 0-.988.388-.988.987v1.313c-2.146-1.742-4.521-2.625-7.064-2.625-2.67 0-4.979.862-6.862 2.563-1.775 1.605-2.966 3.69-3.542 6.203H21.06c-.6 0-.987.387-.987.986s.387.987.987.987h1.677a15.5 15.5 0 00-.066 1.48c0 .516.021.989.063 1.416h-2.323c-.6 0-.987.388-.987.987s.387.986.987.986h2.647c.582 2.56 1.826 4.659 3.703 6.246 1.977 1.673 4.429 2.521 7.288 2.521 3.325 0 6.173-1.141 8.469-3.391.256-.254.31-.511.31-.681 0-.331-.232-.601-.405-.774a.84.84 0 00-.599-.262z"/>
</svg>
