<svg viewBox="0 0 128 128" xmlns="http://www.w3.org/2000/svg">
  <g data-name="Layer 3">
    <path d="M63.988 62.967c6.363 0 7.268-3.967 7.3-4.136a1.751 1.751 0 00-1.039-1.975l-2.888-1.205a4.516 4.516 0 00-3.377-.055 4.53 4.53 0 00-3.377.054l-2.889 1.206a1.751 1.751 0 00-1.039 1.975c.041.169.946 4.136 7.309 4.136zM64.238 53.4h1.957a1.75 1.75 0 000-3.5h-1.877l.7-4.607a1.75 1.75 0 00-3.461-.525l-.71 4.688a3.43 3.43 0 003.391 3.944z"/>
    <path d="M127.99 80.2a1.758 1.758 0 00-1.75-1.75 26.308 26.308 0 00-13.99 3.99 21.815 21.815 0 00-10.04-12.96 1.763 1.763 0 00-1.75 0 21.74 21.74 0 00-10.04 12.96 26.284 26.284 0 00-10.87-3.79l-.7-5.46a23.586 23.586 0 006.89-9.1 35.868 35.868 0 008.12-10.49A8.579 8.579 0 0098.5 46a8.449 8.449 0 00-.93-3.85c2.5-15.991-5.642-32.969-20.778-39.51A32.333 32.333 0 0063.99 0C45.21 0 29.94 16.25 29.94 36.22a38.519 38.519 0 00.47 5.93 8.449 8.449 0 00-.93 3.85 8.579 8.579 0 004.64 7.6 35.868 35.868 0 008.12 10.49 23.661 23.661 0 006.88 9.1l-.96 7.56a5.232 5.232 0 01-4.7 4.55l-14.91 1.47a24.1 24.1 0 00-21.81 24.06v15.42A1.746 1.746 0 008.49 128h111a1.752 1.752 0 001.75-1.75v-13.62a16.155 16.155 0 006.51-6.22 1.733 1.733 0 000-1.76 16.069 16.069 0 00-6.57-6.25 26.557 26.557 0 006.81-17.78zm-38.27 5.95a1.216 1.216 0 00-.01.19 21.806 21.806 0 005.69 16.65 22.92 22.92 0 01-7.17-3.3 23.343 23.343 0 01-10.01-17.67 22.9 22.9 0 0111.5 4.13zm8.26 20.92a12.593 12.593 0 01-19.48-1.54 12.926 12.926 0 015.66-4.52 26.783 26.783 0 0013.82 6.06zM87.26 40.72a19.728 19.728 0 01-14.9-13.66c2.78 2.1 5.78 3.76 8.73 5.6a22.115 22.115 0 016.16 5.31c.03.92.01 1.84.01 2.75zm.53 16.02l.51-2.34c.12.02.23.03.35.05.16.02.32.05.48.06l.18.03c-.48.76-.99 1.49-1.52 2.2zm3.19-5.79a5.015 5.015 0 01-1.93.02l1.17-5.36a24.383 24.383 0 00.54-4.59 5.051 5.051 0 01.22 9.93zm-6.75-39.23a34.017 34.017 0 0110.22 27 8.923 8.923 0 00-3.71-1.24c-.07-1.46-1.67-2.87-2.66-3.84a31.345 31.345 0 00-5.57-4.21c-2.39-1.46-4.81-2.8-7.09-4.45a67.16 67.16 0 01-6.51-5.41c5.4-1.45 12.78-1.88 15.32-7.85zM63.99 3.5a28.922 28.922 0 0117.32 5.76c-.54 3.18-3.99 4.65-6.74 5.45-3.68 1.07-7.43 1.56-11.04 2.92A55.164 55.164 0 0045.49 29.1a57.492 57.492 0 00-7.4 8.34 8.632 8.632 0 00-4.56 1.28c-.06-.84-.09-1.67-.09-2.5 0-18.04 13.7-32.72 30.55-32.72zm3.54 19.57c-5.57 10.39-18.4 13.31-24.8 14.12a53.556 53.556 0 0122.4-16.41c.77.79 1.58 1.55 2.4 2.29zM32.98 46a5.019 5.019 0 01.73-2.61 5.107 5.107 0 013.51-2.37 23.778 23.778 0 00.54 4.6l1.17 5.35A5.1 5.1 0 0132.98 46zm5.69 8.54l.18-.03c.16-.01.32-.04.48-.06.11-.02.23-.03.35-.05l.51 2.34c-.54-.71-1.04-1.44-1.52-2.2zm6.64 7.84l-.06-.15c-.19-.49-.37-.98-.53-1.48-.17-.56-.32-1.14-.44-1.69l-1.59-7.3c-.01-.01-.01-.01-.01-.02l-1.5-6.87c-.07-.33-.14-.67-.19-1a19.466 19.466 0 01-.26-2.94 52.12 52.12 0 009.3-1.55 1.734 1.734 0 00.43 2.22 7 7 0 004.29 1.32c2.92 0 5.39-1.49 5.39-3.26a1.752 1.752 0 00-3.33-.76 3.679 3.679 0 01-2.06.52 3.505 3.505 0 01-2.12-.56.963.963 0 00-.25-.16c5.8-1.86 12.21-5.2 16.51-11.22a24.641 24.641 0 006.85 11.15 1.8 1.8 0 00-.4.23 3.458 3.458 0 01-2.11.56 3.693 3.693 0 01-2.07-.52 1.734 1.734 0 00-1.57-.99 1.752 1.752 0 00-1.75 1.75c0 1.77 2.47 3.26 5.39 3.26a6.97 6.97 0 004.28-1.32 1.707 1.707 0 00.63-1.06 24.9 24.9 0 008.78 3.69c-.04.22-.08.43-.12.64l-1.5 6.87c0 .01-.01.01-.01.02l-1.59 7.29c-.12.57-.28 1.14-.45 1.7s-.36 1.09-.58 1.62v.01a20.2 20.2 0 01-6.57 8.52 29.555 29.555 0 01-5.8 3.01 20.1 20.1 0 01-12.46.06 28.968 28.968 0 01-5.96-3.07 20.047 20.047 0 01-6.57-8.52zM25.99 103v21.5H10.24v-13.67a20.615 20.615 0 0118.65-20.58l14.92-1.46a8.711 8.711 0 007.82-7.6l.74-5.79a24 24 0 0023.24 0l.39 3.1c-1.45.36-1.35 1.92-1.3 3.09a26.74 26.74 0 006.77 16.81 15.943 15.943 0 00-3.92 2.85H27.74a1.746 1.746 0 00-1.75 1.75zm72.5 21.5h-69v-19.75h45.37c-.49.98.15 1.89.69 2.68a16.549 16.549 0 002.32 2.69 16.155 16.155 0 0020.62 1.18zm-5.37-35.84a18.4 18.4 0 018.21-15.61 18.179 18.179 0 010 30.42 18.405 18.405 0 01-8.21-14.81zm24.62 35.84h-15.75v-15.18a16.293 16.293 0 0015.75 4.66zm6.43-18.97a12.637 12.637 0 01-19.48 1.54 26.818 26.818 0 0013.82-6.06 12.612 12.612 0 015.66 4.52zm-16.9-2.54a21.9 21.9 0 005.68-16.84 22.9 22.9 0 0111.5-4.13 23.378 23.378 0 01-17.18 20.97z"/>
  </g>
</svg>
