<svg viewBox="0 0 428 512" xmlns="http://www.w3.org/2000/svg">
  <path d="M373.824 170.602l21.528-21.532c11.695-11.691 11.695-30.722 0-42.422-11.696-11.695-30.727-11.695-42.422 0l-22.985 22.985c-23.976-16.7-51.308-28.258-79.945-33.805V66h20c5.523 0 10-4.477 10-10V30c0-16.543-13.457-30-30-30h-80c-16.543 0-30 13.457-30 30v26c0 5.523 4.477 10 10 10h20v29.828c-28.633 5.543-55.969 17.106-79.945 33.805L67.07 106.648c-11.691-11.695-30.722-11.695-42.422 0-11.695 11.696-11.695 30.727 0 42.422l21.528 21.532C16.336 207.77 0 254.066 0 302c0 115.793 94.207 210 210 210s210-94.207 210-210c0-47.934-16.336-94.23-46.176-131.398zm-6.754-49.813c3.903-3.898 10.243-3.894 14.14 0 3.895 3.898 3.895 10.242 0 14.14l-20.663 20.66a212.624 212.624 0 00-14.617-13.655zM160 30c0-5.516 4.484-10 10-10h80c5.516 0 10 4.484 10 10v16H160zm70 36v26.945a215.141 215.141 0 00-40 0V66zM38.79 120.79c3.898-3.895 10.241-3.9 14.14 0l21.14 21.144a212.624 212.624 0 00-14.617 13.656L38.79 134.93c-3.894-3.899-3.894-10.243 0-14.14zM210 492c-104.766 0-190-85.234-190-190 0-46.215 16.777-90.742 47.238-125.387a191.635 191.635 0 0127.828-25.925c25.246-19.211 55.13-31.856 86.418-36.57a193.151 193.151 0 0157.028 0c31.293 4.714 61.175 17.359 86.425 36.57a191.808 191.808 0 0127.825 25.925C383.222 211.258 400 255.785 400 302c0 104.766-85.234 190-190 190zm0 0"/>
  <path d="M210 332c16.543 0 30-13.457 30-30 0-13.035-8.36-24.152-20-28.281V202c0-5.523-4.477-10-10-10s-10 4.477-10 10v71.719c-11.64 4.129-20 15.246-20 28.281 0 16.543 13.457 30 30 30zm0-40c5.516 0 10 4.484 10 10s-4.484 10-10 10-10-4.484-10-10 4.484-10 10-10zm0 0"/>
  <path d="M316.527 196.5c-.156-.184-.312-.367-.488-.54a9.406 9.406 0 00-.586-.534c-17.625-17.438-39.398-30.34-63.027-37.317-5.301-1.562-10.86 1.461-12.422 6.758-1.563 5.297 1.46 10.86 6.758 12.422 17.508 5.172 33.84 14.11 47.761 26.043l-6.746 6.746c-3.902 3.906-3.902 10.238 0 14.145a9.97 9.97 0 007.075 2.93 9.968 9.968 0 007.07-2.93l6.762-6.762c18.093 21.039 28.84 46.937 30.933 74.539H330c-5.523 0-10 4.48-10 10 0 5.523 4.477 10 10 10h9.617c-2.094 27.605-12.84 53.5-30.933 74.54l-6.762-6.763c-3.906-3.902-10.238-3.902-14.145 0-3.906 3.907-3.906 10.239 0 14.145l6.762 6.762C273.5 418.777 247.602 429.524 220 431.62V422c0-5.523-4.477-10-10-10s-10 4.477-10 10v9.617c-27.602-2.094-53.5-12.84-74.54-30.933l6.763-6.762c3.906-3.906 3.906-10.238 0-14.145-3.907-3.902-10.239-3.902-14.145 0l-6.762 6.762C93.223 365.5 82.476 339.602 80.383 312H90c5.523 0 10-4.477 10-10s-4.477-10-10-10h-9.617c2.094-27.602 12.84-53.5 30.933-74.54l6.762 6.763a9.968 9.968 0 007.07 2.93 9.97 9.97 0 007.075-2.93c3.902-3.907 3.902-10.239 0-14.145l-6.746-6.746c13.921-11.937 30.253-20.871 47.761-26.043 5.297-1.562 8.32-7.125 6.758-12.422-1.562-5.297-7.117-8.316-12.422-6.758-23.625 6.973-45.39 19.871-63.012 37.301-.207.176-.41.356-.601.547-.172.172-.324.352-.48.531C75.436 224.793 60 262.23 60 302c0 39.766 15.437 77.2 43.473 105.5.156.184.312.367.488.54.172.175.351.327.531.483C132.797 436.563 170.23 452 210 452c39.766 0 77.2-15.434 105.5-43.469.184-.16.367-.316.54-.492.17-.168.323-.352.48-.527C344.562 379.207 360 341.77 360 302c0-39.766-15.438-77.2-43.473-105.5zm0 0"/>
  <path d="M210 172c5.52 0 10-4.48 10-10s-4.48-10-10-10-10 4.48-10 10 4.48 10 10 10zm0 0"/>
</svg>
